<?xml version="1.0" encoding="utf-8"?>
<!-- Generator: Adobe Illustrator 16.0.0, SVG Export Plug-In . SVG Version: 6.00 Build 0)  -->
<!DOCTYPE svg PUBLIC "-//W3C//DTD SVG 1.1//EN" "http://www.w3.org/Graphics/SVG/1.1/DTD/svg11.dtd">
<svg version="1.1" id="Layer_1" xmlns="http://www.w3.org/2000/svg" xmlns:xlink="http://www.w3.org/1999/xlink" x="0px" y="0px"
	 width="500px" height="500px" viewBox="0 0 500 500" enable-background="new 0 0 500 500" xml:space="preserve">
<path fill="#3B5998" d="M431.71,31.95H68.29c-20.077,0-36.34,16.264-36.34,36.34l-0.001,363.421c0,20.078,16.264,36.34,36.34,36.34
	H431.71c20.078,0,36.34-16.262,36.34-36.34V68.29C468.05,48.213,451.788,31.95,431.71,31.95z M397.5,393.5h-282v-295h282V393.5z"/>
<g>
	<path fill="#3B5998" d="M261.728,280.167c-0.254-0.199-0.513-0.391-0.765-0.594c-0.086-0.063-0.165-0.137-0.248-0.203
		c-0.178-0.137-0.287-0.222-0.287-0.222h-7.342c-3.515,0.234-7.059,0.625-10.574,0.99c-4.143,0.489-8.264,1.141-12.357,1.813
		c-2.045,0.348-4.087,0.693-6.108,1.107c-2.017,0.438-4.02,0.903-5.995,1.404c-3.513,0.928-7.055,2.433-10.402,4.227
		c-3.367,1.771-6.488,4.032-9.208,6.58c-2.716,2.562-4.964,5.502-6.663,8.49c-0.853,1.492-1.57,3.002-2.159,4.481
		c-0.301,0.738-0.541,1.483-0.766,2.217c-0.242,0.72-0.458,1.433-0.631,2.141c-0.635,2.864-1.002,5.472-1.031,8.154
		c-0.055,1.336,0.018,2.696,0.127,4.099l0.023,0.263l0.005,0.067c0.017,0.128-0.005-0.021-0.014-0.081l0.023,0.181l0.103,0.781
		l0.154,1.063c0.132,0.747,0.275,1.507,0.456,2.238c0.743,2.935,1.704,5.739,3.121,8.354c1.441,2.591,3.177,5.1,5.374,7.385
		c2.203,2.265,4.751,4.433,7.67,6.299c5.821,3.772,12.91,6.53,20.456,8.252c3.78,0.828,7.679,1.435,11.638,1.801
		c3.96,0.327,7.976,0.438,12.015,0.393c0.875-0.006,2.124-0.05,3.024-0.089c0.951-0.033,1.941-0.098,2.937-0.162
		c1.748-0.126,3.485-0.32,5.215-0.558c26.457-3.955,40.555-26.323,36.212-42.243C291.911,304.793,267.639,284.858,261.728,280.167z"
		/>
	
		<ellipse transform="matrix(-0.3087 -0.9512 0.9512 -0.3087 148.0609 459.7593)" fill="#3B5998" cx="241.104" cy="176.075" rx="49.653" ry="36.98"/>
	<rect x="359.5" y="101.5" fill="#B2B7BF" width="10" height="70"/>
	<rect x="328.5" y="131.5" fill="#B2B7BF" width="70" height="10"/>
	<path fill="#3B5998" d="M365.26,85H133.74C106.933,85,85,106.933,85,133.74v231.519C85,392.066,106.933,414,133.74,414h231.519
		C392.066,414,414,392.066,414,365.26V133.74C414,106.933,392.066,85,365.26,85z M319.042,323.14
		c-0.142,0.731-0.271,1.46-0.448,2.179c-0.165,0.716-0.359,1.411-0.603,2.257c-0.395,1.194-0.885,2.508-1.389,3.668
		c-4.188,9.339-10.216,16.936-17.253,23.257c-1.311,1.134-2.667,2.196-4.046,3.224c-4.146,3.25-8.969,6.378-14.628,9.25
		c-31.24,15.863-70.966,8.989-70.966,8.989l0.002-0.017c-3.292-0.45-6.614-1.107-9.949-2.018l0.014,0.021
		c0,0-3.034-0.646-7.586-2.554c-4.304-1.764-8.617-3.973-12.574-6.971c-10.623-7.495-20.129-17.13-22.293-30.895
		c-1.222-7.766,0.27-15.705,1.799-21.153c0.96-3.89,2.489-7.616,4.471-10.931c0.778-1.292,1.622-2.521,2.492-3.71
		c0.911-1.158,1.842-2.28,2.816-3.328c1.927-2.119,4.015-3.98,6.152-5.649c2.139-1.668,4.336-3.14,6.564-4.449
		c2.249-1.282,4.408-2.555,6.664-3.608c4.471-2.15,8.875-4.039,13.399-5.582c4.285-1.428,8.686-2.457,13.347-3.024
		c0.103-0.018,0.197-0.038,0.3-0.053c12.334-1.955,26.367-2.118,32.013-2.118c0.519,0,0.993,0.021,1.467,0.041
		c-2.254-2.46-10.499-12.168-10.499-22.568c0-5.98,1.617-10.075,3.246-12.685c-30.091,2.116-57.464-14.182-64.806-40.682
		c-8.563-30.895,13.338-63.933,48.915-73.793c6.34-1.758,12.685-2.645,18.883-2.767v-0.029c0,0,12.259-0.269,17.205-0.735
		c4.946-0.466,25.379-12.975,27.315-14.48c1.935-1.506,3.655-0.968,3.655-0.968s8.065,6.559,8.71,7.85
		c0.646,1.29-1.075,3.764-1.075,3.764s-9.786,13.442-11.184,15.163c-1.398,1.721-0.538,4.214-0.538,4.214l-0.005,0.01
		c6.398,5.382,11.497,12.081,14.774,19.844l0.01-0.015c0,0,5.844,12.046,5.861,27.187c0.021,15.324-9.672,27.797-22.253,37.476
		c-12.582,9.678-17.206,17.851-17.206,23.013c0,12.767,7.205,13.013,21.29,24.508c0.052,0.043,0.096,0.081,0.147,0.122
		c3.191,2.382,6.342,4.921,9.436,7.672c1.763,1.569,3.495,3.224,5.16,4.998c1.177,1.19,2.267,2.492,3.311,3.855
		c0.071,0.084,0.115,0.143,0.115,0.143h-0.003c0.436,0.571,0.864,1.149,1.284,1.741c2.868,4.155,5.35,8.881,6.977,14.234
		c1.229,4.06,1.957,8.445,2.221,12.924l0.002-0.003c0,0,0.041,0.479,0.056,1.322c0.039,0.985,0.063,1.975,0.055,2.967
		C319.854,317.217,319.549,320.216,319.042,323.14z"/>
</g>
</svg>
