<?xml version="1.0" encoding="utf-8"?>
<!-- Generator: Adobe Illustrator 16.0.0, SVG Export Plug-In . SVG Version: 6.00 Build 0)  -->
<!DOCTYPE svg PUBLIC "-//W3C//DTD SVG 1.1//EN" "http://www.w3.org/Graphics/SVG/1.1/DTD/svg11.dtd">
<svg version="1.1" id="Layer_1" xmlns="http://www.w3.org/2000/svg" xmlns:xlink="http://www.w3.org/1999/xlink" x="0px" y="0px"
	 width="100px" height="100px" viewBox="0 0 100 100" enable-background="new 0 0 100 100" xml:space="preserve">
<g>
	<g>
		<path fill="#3B5998" d="M74.748,76.051H67.93c0-24.336-19.798-44.133-44.134-44.133v-6.819
			C51.893,25.099,74.748,47.955,74.748,76.051z"/>
	</g>
	<g>
		<path fill="#3B5998" d="M95,76.051h-6.818c0-35.503-28.884-64.387-64.386-64.387V4.845C63.059,4.845,95,36.787,95,76.051z"/>
	</g>
	<g>
		<g>
			
				<rect x="36.053" y="53.9" transform="matrix(0.7072 0.7071 -0.7071 0.7072 53.3778 -11.6589)" fill="#3B5998" width="9.422" height="9.42"/>
		</g>
		<g>
			<polygon fill="#3B5998" points="13.488,92.546 6.83,85.889 3.5,95.878 			"/>
		</g>
		<g>
			
				<rect x="19.092" y="59.802" transform="matrix(0.7071 0.7071 -0.7071 0.7071 60.417 5.309)" fill="#3B5998" width="9.416" height="31.556"/>
		</g>
	</g>
</g>
</svg>
