<?xml version="1.0" encoding="utf-8"?>
<!-- Generator: Adobe Illustrator 16.0.0, SVG Export Plug-In . SVG Version: 6.00 Build 0)  -->
<!DOCTYPE svg PUBLIC "-//W3C//DTD SVG 1.1//EN" "http://www.w3.org/Graphics/SVG/1.1/DTD/svg11.dtd">
<svg version="1.1" id="Layer_1" xmlns="http://www.w3.org/2000/svg" xmlns:xlink="http://www.w3.org/1999/xlink" x="0px" y="0px"
	 width="500px" height="500px" viewBox="0 0 500 500" enable-background="new 0 0 500 500" xml:space="preserve">
<path fill="#3F9DB8" d="M31.949,431.711c0,20.078,16.264,36.34,36.34,36.34H431.71c20.078,0,36.34-16.262,36.34-36.34V68.29
	c0-20.077-16.262-36.34-36.34-36.34H68.29c-20.077,0-36.34,16.264-36.34,36.34L31.949,431.711L31.949,431.711z M259.086,413.538
	V268.172h-36.342v-54.514h36.342c0-93.671,3.993-99.939,118.112-99.939v54.513c-60.149,0-54.515,3.362-54.515,45.427h54.515v54.514
	h-54.515v145.366L259.086,413.538L259.086,413.538z"/>
</svg>
