<?xml version="1.0" standalone="no"?>
<!DOCTYPE svg PUBLIC "-//W3C//DTD SVG 1.1//EN" "http://www.w3.org/Graphics/SVG/1.1/DTD/svg11.dtd" >
<svg xmlns="http://www.w3.org/2000/svg">
<metadata></metadata>
<defs>
<font id="evo_bqregular" horiz-adv-x="1366" >
<font-face units-per-em="2048" ascent="1638" descent="-410" />
<missing-glyph horiz-adv-x="598" />
<glyph horiz-adv-x="2048" />
<glyph horiz-adv-x="2048" />
<glyph unicode="&#xd;" horiz-adv-x="598" />
<glyph horiz-adv-x="598" d="M-272 1503h202l181 -153l178 153h203l-386 -385z" />
<glyph horiz-adv-x="256" d="M-465 0l1002 1446h188l-997 -1446h-193z" />
<glyph horiz-adv-x="1216" d="M119 0v954q0 74 2 158t31 156q12 29 35.5 62.5t61.5 62t93 48t133 19.5q39 0 85 -6t122 -29v-196q-12 4 -51 14t-84 10q-37 0 -60.5 -8t-35.5 -16q-45 -31 -52.5 -79t-7.5 -95v-78h262v-211h-262v-766h-272zM814 1270q0 53 12 76q10 27 39.5 48t93.5 21q53 0 83 -15.5 t44 -35.5q12 -18 17 -45.5t5 -50.5q0 -6 -1 -22.5t-7 -37t-18 -40t-35 -31.5q-25 -12 -51.5 -14.5t-34.5 -2.5t-25.5 1t-39 7.5t-41 20.5t-29.5 41q-12 20 -12 80zM824 0v981h274v-981h-274z" />
<glyph horiz-adv-x="1216" d="M119 0v954q0 74 2 158t31 156q12 29 35.5 62.5t61.5 62t93 48t133 19.5q39 0 85 -6t122 -29v-196q-12 4 -51 14t-84 10q-37 0 -60.5 -8t-35.5 -16q-45 -31 -52.5 -79t-7.5 -95v-78h262v-211h-262v-766h-272zM824 0v1446h272v-1446h-272z" />
<glyph unicode=" "  horiz-adv-x="598" />
<glyph unicode="&#x09;" horiz-adv-x="598" />
<glyph unicode="&#xa0;" horiz-adv-x="598" />
<glyph unicode="!" horiz-adv-x="598" d="M182 154q0 8 1 30.5t10 44.5q18 47 57 63.5t86 16.5q84 0 122 -36.5t38 -120.5q0 -55 -16.5 -87t-41 -47.5t-52.5 -18.5t-48 -3q-6 0 -24.5 1t-40 7t-43 20.5t-33.5 43.5q-6 14 -10.5 32.5t-4.5 53.5zM184 1446h314l-41 -1024h-226z" />
<glyph unicode="&#x22;" horiz-adv-x="811" d="M64.5 1411q-1.5 14 3.5 27q2 12 10 29.5t23.5 31.5t39 24.5t58.5 10.5q31 0 52 -9t35.5 -22.5t21.5 -29t9 -25.5q2 -14 2 -23.5t-2 -31.5l-96 -531h-55l-96 508q-4 27 -5.5 41zM492 1411q0 14 2 27q2 12 11 29.5t24.5 31.5t39 24.5t58.5 10.5q57 0 83.5 -29.5t30.5 -50.5 q4 -16 4 -30.5t-2 -30.5l-96 -531h-55l-96 508q-4 27 -4 41z" />
<glyph unicode="#" d="M86 438v205h276l27 193h-258v204h285l55 406h213l-57 -406h200l56 406h207l-56 -406h242v-204h-268l-29 -193h252v-205h-277l-63 -438h-207l64 438h-203l-62 -438h-209l62 438h-250zM569 643h205l27 193h-203z" />
<glyph unicode="$" horiz-adv-x="1024" d="M74 1083q2 92 44 174t120 132q29 16 67.5 34.5t108.5 28.5l-4 205h225l-4 -195q47 -4 110.5 -11t161.5 -32v-260q-33 10 -107.5 31.5t-177.5 21.5q-12 0 -38.5 -1t-57.5 -9q-55 -14 -89 -52t-34 -97q0 -10 2 -32t19 -48q14 -25 38.5 -48.5t53.5 -44t59.5 -38t55.5 -31.5 q6 -4 26.5 -16.5t48 -31t58.5 -40t57 -45.5q18 -16 41 -41t44.5 -61.5t35.5 -85t14 -109.5q0 -96 -43 -183t-125 -139q-53 -35 -101 -47t-69 -16l7 -207h-228l6 197q-106 4 -176.5 18t-113.5 25v250q102 -29 166.5 -36t111.5 -7q53 0 104.5 10t88.5 51q10 12 23 38.5 t13 67.5q0 39 -18 80t-78 90q-53 45 -111.5 80t-113.5 74q-94 68 -157.5 151t-63.5 205z" />
<glyph unicode="%" horiz-adv-x="1652" d="M72 987q0 12 1 53t9 96.5t27.5 116t58.5 109.5q37 47 71.5 65.5t59.5 24.5q12 4 26 7t37 3q10 0 52.5 -6t83.5 -33q68 -43 110.5 -146t42.5 -276q0 -12 -1 -53t-8 -93t-25.5 -109.5t-51.5 -106.5q-53 -78 -109.5 -96.5t-97.5 -18.5q-18 0 -41.5 3t-50 14.5t-54.5 33 t-54 58.5q-35 51 -60.5 134t-25.5 220zM219 0l1002 1446h213l-998 -1446h-217zM250 926.5q0 -23.5 4 -57t12 -69.5t27 -67q16 -31 34.5 -39t34.5 -10q8 0 21.5 3t28.5 18q12 12 21 30.5t15.5 37t8.5 31.5l2 13q4 23 8 84.5t4 130.5q0 86 -9 137.5t-32 85.5q-4 10 -18.5 27.5 t-46.5 17.5q-4 0 -15.5 -2t-21.5 -8q-20 -14 -34.5 -40.5t-21.5 -49.5q-6 -23 -11 -54.5t-7 -66.5t-3 -67.5t-1 -55.5v-29.5zM997 444q0 166 37 263.5t96 150.5q47 41 89 51.5t71 10.5q31 0 80 -12.5t98 -65.5q47 -53 78 -142.5t31 -242.5q0 -92 -15.5 -185.5t-66.5 -171.5 q-6 -8 -24.5 -32.5t-47.5 -44.5q-16 -10 -50 -25.5t-87 -15.5q-129 2 -201 108q-35 49 -61.5 133t-26.5 221zM1178 410q0 -53 6 -107.5t28 -101.5q18 -37 37 -47.5t39 -12.5q72 0 96 125q4 29 9.5 91.5t5.5 138.5q0 51 -6.5 99t-19.5 84t-33.5 57.5t-49.5 21.5q-4 0 -15 -2 t-22 -8q-14 -10 -24 -26.5t-17.5 -32t-11.5 -27t-4 -13.5q-6 -23 -9 -54.5t-5 -65t-3 -66.5t-1 -53z" />
<glyph unicode="&#x26;" horiz-adv-x="1280" d="M76 436q0 18 6 54t29 79q37 74 103.5 122t129.5 93q-8 10 -15 21.5t-18 21.5q-51 66 -89 141.5t-38 161.5q0 18 5.5 59.5t29.5 86.5q14 29 43 62.5t73 62.5t105.5 48t143.5 19q115 0 177 -32.5t97 -65.5q14 -12 31.5 -32.5t34 -49t28 -68.5t11.5 -90q0 -86 -35 -154.5 t-80 -118.5t-89 -81t-61 -43l588 -735h-344l-448 588q-10 -8 -20.5 -15.5t-20.5 -17.5q-35 -29 -56.5 -61.5t-19.5 -77.5q0 -12 2 -29.5t12 -44.5q25 -66 72 -127t100 -96q10 -6 21.5 -12.5t23.5 -14.5q16 -10 33.5 -25.5t36.5 -29.5q12 -10 24.5 -18.5t22.5 -18.5h-336 q-33 20 -59.5 39.5t-55.5 44.5q-117 100 -157.5 194.5t-40.5 159.5zM436 1135q0 -35 12.5 -65t49.5 -83q6 -10 13 -21.5t15 -21.5q6 -10 13.5 -17t15.5 -16l37 25q78 53 104.5 108.5t26.5 96.5q0 59 -41 95t-100 36q-61 0 -103.5 -37t-42.5 -100z" />
<glyph unicode="'" horiz-adv-x="425" d="M86 1414.5q0 15.5 4 29.5q10 45 50 67.5t81 22.5q57 0 83 -28.5t32 -49.5q4 -16 4 -30.5t-2 -32.5l-96 -531h-56l-96 508q-4 29 -4 44.5z" />
<glyph unicode="(" horiz-adv-x="575" d="M59 551q0 29 3.5 83t15.5 126q8 57 25.5 124.5t40 134t48 130t54.5 117.5q16 29 43.5 74.5t70.5 109.5l199 -2q-20 -39 -39.5 -78t-36.5 -80q-55 -125 -88 -237.5t-51 -208.5t-24.5 -173t-6.5 -132q0 -121 17.5 -236t42 -210t50.5 -165.5t40 -105.5q31 -72 55.5 -119 t40.5 -76h-197q-16 20 -30.5 40t-28.5 42q-12 18 -30.5 51t-41 77t-45 97.5t-43.5 112.5q-10 29 -24.5 79t-27.5 115.5t-22.5 144.5t-9.5 165z" />
<glyph unicode=")" horiz-adv-x="575" d="M20 -373q18 33 36 65t34 64q39 86 72 183.5t56.5 199t35.5 202.5t12 198q0 180 -41 362t-108 348q-23 51 -45.5 100.5t-51.5 100.5l199 -2q16 -23 48 -70t67 -112q29 -53 55.5 -118t49 -132.5t39 -135t26.5 -126.5q6 -33 11 -84.5t5 -128.5q0 -123 -16.5 -227.5 t-41 -189.5t-51 -149.5t-46.5 -105.5q-10 -23 -34 -70t-63 -104q-10 -18 -23.5 -34.5t-25.5 -33.5h-199z" />
<glyph unicode="*" horiz-adv-x="811" d="M63 1227l29 86l238 -47l28 241h95l26 -245l238 51l28 -86l-219 -109l119 -209l-76 -53l-163 176l-168 -176l-76 53l125 213z" />
<glyph unicode="+" d="M86 492v208h494v494h211v-494h489v-208h-489v-492h-211v492h-494z" />
<glyph unicode="," horiz-adv-x="512" d="M63 -242l121 545h256l-200 -545h-177z" />
<glyph unicode="-" horiz-adv-x="788" d="M78 426v197h637v-197h-637z" />
<glyph unicode="." horiz-adv-x="512" d="M90 168q0 23 1 41t9 37q10 33 44 60.5t110 25.5q33 0 64.5 -6.5t56.5 -28.5q16 -12 22 -22.5t11 -18.5q4 -12 9 -33.5t5 -56.5q0 -37 -8 -70q-10 -37 -33 -56.5t-47.5 -28.5t-47 -10t-32.5 -1q-8 0 -26.5 1t-42 7t-45 21.5t-36.5 44.5q-10 23 -12 46t-2 48z" />
<glyph unicode="/" horiz-adv-x="980" d="M12 0l701 1446h223l-698 -1446h-226z" />
<glyph unicode="0" horiz-adv-x="1077" d="M80 711q0 72 5 147.5t19.5 149t40 143.5t66.5 131q59 92 142 141.5t196 49.5q78 0 137 -25t101 -59.5t69 -70.5t39 -58q33 -57 53.5 -124t32.5 -136.5t16 -139.5t4 -131q0 -18 -2 -82.5t-14 -150.5t-41 -180.5t-84 -172.5q-59 -86 -139 -129t-184 -43q-68 0 -118 16.5 t-87 41t-62.5 51t-40.5 47.5q-61 82 -105 220t-44 364zM356 729q0 -51 3 -101t8 -104q6 -66 18 -128t51 -117q10 -14 35 -38t72 -24q39 0 73.5 25.5t61.5 97.5q20 55 32.5 155.5t12.5 243.5q0 106 -7 175t-18 114q-8 33 -14 55.5t-12 32.5q-2 6 -10.5 24.5t-23.5 37 t-38.5 33t-56.5 12.5q-10 0 -25.5 -3t-34.5 -16q-41 -25 -64.5 -77t-33.5 -95q-6 -31 -12 -70.5t-9.5 -80.5t-5.5 -81t-2 -71z" />
<glyph unicode="1" horiz-adv-x="1077" d="M182 977v233l367 234h242v-1444h-283v1106z" />
<glyph unicode="2" horiz-adv-x="1077" d="M74 0q4 41 16 91t51 128q41 82 89.5 147.5t101.5 137.5q45 61 88 121.5t88 122.5q20 29 46 63.5t46.5 72.5t34.5 77.5t14 76.5q0 43 -17.5 75t-45 51.5t-63.5 28.5t-72 9q-55 0 -112.5 -16.5t-106 -38t-81 -39.5t-40.5 -25v244q23 14 64.5 36.5t98 45.5t125 39t148.5 16 q23 0 73 -4t109 -24q111 -41 175.5 -131.5t64.5 -206.5q0 -74 -24.5 -144.5t-61.5 -137t-81 -129t-83 -118.5q-45 -63 -89 -124.5t-91 -120.5q-14 -16 -27.5 -33t-26.5 -33h510v-258h-921z" />
<glyph unicode="3" horiz-adv-x="1077" d="M102 41v223q14 -6 27.5 -11t28.5 -9q23 -8 87 -21.5t142 -13.5q98 0 155.5 28.5t86.5 59.5q25 29 37 64.5t12 74.5q0 45 -13.5 74t-23.5 43q-29 39 -85 69.5t-163 28.5q-47 0 -70.5 -4t-46.5 -10l324 549h-473v258h840q-2 -37 -7.5 -67.5t-16.5 -64.5t-30.5 -76 t-50.5 -103l-205 -328q47 -4 75 -10.5t50 -14.5q51 -20 89 -56t62.5 -81t37 -96t12.5 -105q0 -25 -4 -63.5t-18.5 -84.5t-43 -95t-77.5 -95q-27 -25 -63 -48t-84 -41.5t-111.5 -31t-145.5 -12.5q-127 0 -206.5 23.5t-127.5 46.5z" />
<glyph unicode="4" horiz-adv-x="1077" d="M33 264q0 31 1 49.5t7 48.5q6 35 16.5 69t26.5 73t39.5 86t58.5 108l434 748h345v-1446h-281v264h-647zM317 469h363v674z" />
<glyph unicode="5" horiz-adv-x="1077" d="M131 35v227q16 -6 29.5 -12t29.5 -10q20 -4 78 -16.5t125 -12.5q12 0 41 1t65 10t72.5 29.5t65.5 57.5q33 41 39 79t6 56q0 72 -40 124.5t-105 74.5q-20 6 -50 12.5t-77 6.5q-88 0 -157 -17.5t-95 -26.5v828h774v-258h-504l2 -336q18 4 50 9t79 5q25 0 67 -4t97 -24 q35 -12 81 -38t86 -72t67.5 -113.5t27.5 -165.5q0 -88 -24.5 -163t-81.5 -141q-29 -31 -67 -61.5t-91 -55t-125 -39t-166 -14.5q-115 0 -184.5 19.5t-114.5 40.5z" />
<glyph unicode="6" horiz-adv-x="1077" d="M94 510q0 109 23.5 216.5t65.5 208.5t102.5 193.5t134.5 171.5q51 55 92 90t63 54h355q-23 -18 -66 -52t-95 -83t-108.5 -110.5t-105.5 -135.5q-63 -94 -90 -158.5t-43 -113.5q10 14 27.5 35.5t44 41t63.5 32.5t86 13q23 0 71 -8t101 -43q31 -18 63.5 -51t60.5 -81 t45 -114.5t17 -152.5q0 -27 -5 -89.5t-33 -133.5q-14 -35 -43 -81t-77 -87t-120 -71t-170 -30q-123 0 -210 43t-142.5 116t-81 171t-25.5 209zM373 455q0 -59 18.5 -121t67.5 -98q41 -29 92 -29q29 0 48 8t30 12q35 23 65.5 76.5t30.5 149.5q0 12 -2 38.5t-12 61.5 q-16 57 -57.5 100t-104.5 43q-14 0 -39 -5t-53 -25q-31 -23 -57.5 -74t-26.5 -137z" />
<glyph unicode="7" horiz-adv-x="1077" d="M104 1186v258h904q-2 -51 -8.5 -97.5t-19.5 -98.5t-34.5 -118.5t-54.5 -156.5l-361 -973h-299l441 1186h-568z" />
<glyph unicode="8" horiz-adv-x="1077" d="M86 395q0 20 4 57t19.5 80t47 85t87.5 73q20 10 36.5 17.5t53.5 17.5q-29 8 -50.5 16.5t-45.5 24.5q-72 47 -105 125t-33 162q0 59 10.5 101t20.5 65q14 37 44 80.5t79 81.5t119.5 65t169.5 27q18 0 48 -2.5t66.5 -9.5t77.5 -23.5t80 -42.5q23 -16 51.5 -44t54 -70 t43 -97.5t17.5 -128.5q0 -16 -3 -53t-17.5 -80t-42 -86t-78.5 -76q-23 -14 -44 -22.5t-46 -16.5l31.5 -9t29.5 -10q27 -10 59.5 -31.5t60 -57t46 -88t18.5 -124.5q0 -18 -2 -51t-13 -71.5t-31.5 -81.5t-57.5 -84q-20 -25 -51 -49.5t-74 -45t-100.5 -34t-130.5 -13.5 q-63 0 -107.5 9.5t-69.5 19.5q-129 47 -200.5 151.5t-71.5 243.5zM362 399q0 -14 2.5 -39.5t14.5 -58.5q6 -12 16.5 -31.5t29.5 -38t48 -31t70 -12.5q8 0 32.5 3.5t47.5 17.5q51 29 73.5 87t20.5 114q0 12 -2 37.5t-13 58.5q-44 115 -163 115q-47 -2 -77 -19.5t-42 -30.5 q-20 -23 -31.5 -50t-17.5 -52t-7.5 -44t-1.5 -26zM371 1032q0 -10 2 -37.5t12 -56.5q4 -12 15.5 -31.5t30 -36t47 -29t67.5 -12.5q45 0 76.5 18.5t51 49.5t28 69t8.5 76q0 39 -9.5 78t-30 70t-53 48t-79.5 17q-47 -2 -78 -21.5t-51.5 -51t-28.5 -71.5t-8 -79z" />
<glyph unicode="9" horiz-adv-x="1077" d="M82 985q0 25 3 72t19.5 102t50 114.5t95.5 108.5q45 35 86 52.5t61 21.5q18 4 51 10.5t80 6.5q12 0 39 -1.5t59.5 -7.5t69.5 -18t74 -33q39 -23 78 -61.5t69.5 -97t50 -137.5t19.5 -183q0 -57 -10 -140t-41 -182.5t-88 -210t-152 -223.5q-61 -72 -105 -111.5t-77 -66.5 h-334q33 29 63.5 55.5t61.5 55.5l59 59t84.5 93t91.5 124t81 154q12 29 21 56.5t20 55.5q-10 -14 -28 -34.5t-43.5 -40t-60 -33t-84.5 -13.5q-59 0 -99 16.5t-60 26.5q-33 18 -69 50t-66.5 82.5t-50 119t-19.5 158.5zM358 991q0 -66 16.5 -111.5t41 -75.5t56.5 -43t63 -13 t61.5 14t55 43t41 75t16.5 111q0 66 -16.5 113t-42 76.5t-57.5 43t-63 13.5q-41 0 -73 -18q-37 -23 -69 -76.5t-30 -151.5z" />
<glyph unicode=":" horiz-adv-x="598" d="M170 168q0 23 4 51.5t20.5 54t49 42t90.5 16.5q25 0 46 -2t44 -13q31 -14 47 -35.5t23.5 -44t7.5 -42v-29.5t-1 -37t-16 -55q-14 -29 -35.5 -44.5t-44 -21.5t-42 -7t-29.5 -1q-27 0 -50.5 3t-45.5 17q-45 23 -56.5 62t-11.5 86zM170 846q0 8 1 33.5t11 50.5q12 31 34 46 t44.5 23.5t42 9.5t29.5 1q41 0 63.5 -6.5t38.5 -14.5q29 -14 48.5 -46.5t19.5 -98.5q0 -59 -17.5 -92t-43 -49.5t-55.5 -20.5t-52 -4q-25 0 -49.5 4t-46.5 14q-45 25 -56.5 64t-11.5 86z" />
<glyph unicode=";" horiz-adv-x="598" d="M121 -242l121 545h256l-201 -545h-176zM178 815.5v30.5q0 20 4 49t20.5 54.5t49.5 43t90 17.5q86 0 128 -40t42 -126q0 -59 -17.5 -92t-43 -50.5t-55 -20.5t-52.5 -3h-32.5t-45.5 10q-35 12 -53 34.5t-26.5 47.5t-8.5 45.5z" />
<glyph unicode="&#x3c;" d="M0 614v213l1366 625v-231l-1083 -500l1083 -498v-229z" />
<glyph unicode="=" d="M0 299v211h1366v-211h-1366zM0 684v211h1366v-211h-1366z" />
<glyph unicode="&#x3e;" d="M0 -6v229l1081 498l-1081 500v231l1366 -625v-213z" />
<glyph unicode="?" horiz-adv-x="1013" d="M129 1090v260q16 10 29.5 18t29.5 16q20 10 54 24.5t79.5 28t100.5 22.5t117 9q18 0 71.5 -4t108.5 -24q117 -41 182.5 -137.5t65.5 -219.5q0 -66 -19.5 -128t-52.5 -119.5t-73 -110.5t-79 -102q-31 -37 -51 -64t-32.5 -48.5t-19.5 -41.5t-15 -47h-263q4 63 14.5 95 t24.5 58q20 39 52 82t86 117q61 86 85.5 143.5t24.5 110.5q0 8 -2 28.5t-10 43.5q-6 18 -19.5 37.5t-36 36t-54 26.5t-76.5 10q-55 0 -136.5 -24.5t-185.5 -95.5zM340 154q0 6 1 29.5t9 45.5q16 47 56 63.5t88 16.5q82 0 120.5 -36.5t38.5 -120.5q0 -23 -2 -43.5t-12 -40.5 q-12 -29 -33.5 -43.5t-43 -20.5t-40 -7t-26.5 -1q-47 0 -72 10t-41 25q-20 16 -31.5 42.5t-11.5 80.5z" />
<glyph unicode="@" horiz-adv-x="1835" d="M141 483q0 41 6.5 107.5t27 146.5t60 171t109.5 182q33 43 95.5 106.5t154.5 121.5t214 99t277 41q25 0 69 -2t99.5 -14t117 -39t120.5 -74q31 -25 66.5 -64.5t65.5 -96t50.5 -132t20.5 -172.5q0 -78 -14.5 -160.5t-43 -162.5t-71.5 -152t-99 -129q-76 -74 -142.5 -96.5 t-111.5 -22.5q-8 0 -29.5 2t-46 11.5t-48 28t-37.5 50.5q-6 14 -9.5 25.5t-7.5 38.5q-12 -16 -31.5 -38.5t-56.5 -51.5q-43 -31 -88 -48.5t-98 -17.5q-16 0 -46 3t-65 20q-29 14 -58.5 38.5t-53 62.5t-39 91.5t-15.5 124.5q0 68 14.5 137.5t42 135t67.5 125t93 102.5 q47 37 104.5 61.5t117.5 22.5q51 0 99 -19.5t83 -58.5q18 -20 29.5 -41.5t15.5 -27.5l25 104h161l-67 -317q-25 -119 -41.5 -208t-16.5 -137q0 -27 10.5 -50t43.5 -23q35 2 80 41t88 110q39 63 62.5 128t35.5 122t15 102.5t3 69.5q0 80 -12 129t-29 82q-41 90 -104.5 140.5 t-129 75t-122.5 29.5t-84 5q-37 0 -92 -6t-121 -26.5t-138.5 -60.5t-146.5 -106q-135 -123 -211.5 -289.5t-76.5 -349.5q0 -29 7 -99.5t40 -150.5q37 -92 100.5 -157.5t143 -108.5t172 -63.5t184.5 -20.5q39 0 90 5.5t114.5 20.5t135 45t151.5 81q76 47 116 83t69 64 l82 -104q-111 -109 -218.5 -174.5t-206 -100t-182.5 -46t-145 -11.5q-47 0 -143.5 11.5t-212.5 58.5q-139 57 -214 129.5t-108 126.5q-39 55 -77 154.5t-38 256.5zM670 492q0 -8 1 -29t7 -45.5t20.5 -50t40.5 -43.5q10 -8 29.5 -16.5t50.5 -8.5t80 23.5t94 85.5 q31 43 50.5 91t29.5 91t13.5 77t3.5 48q0 12 -1.5 31.5t-9.5 48.5q-12 37 -30.5 59.5t-39 34.5t-41 16t-34.5 4q-29 0 -54.5 -9t-48.5 -26q-41 -29 -70.5 -74.5t-50 -99t-30.5 -108.5t-10 -100z" />
<glyph unicode="A" horiz-adv-x="1269" d="M33 0l203 719q16 59 32.5 117.5t32.5 117.5q16 51 32.5 102.5t33.5 102.5q23 72 45 143.5t47 143.5h354q20 -57 39.5 -114.5t36.5 -117.5q35 -104 64.5 -209.5t58.5 -211.5l30 -107l191 -686h-315l-70 285h-434l-70 -285h-311zM461 500h342l-172 714z" />
<glyph unicode="B" horiz-adv-x="1140" d="M135 0v1446h346h38t65 -1t79 -6t82 -16q16 -4 41 -13t54.5 -24.5t60.5 -39t60 -60.5q20 -25 49.5 -84t29.5 -147q0 -82 -36.5 -156t-104.5 -121q-25 -16 -45 -25.5t-47 -19.5q14 -4 55 -18.5t82 -42.5q43 -31 67.5 -69t37 -74.5t15.5 -67.5t3 -47q0 -35 -13.5 -99.5 t-68.5 -136.5q-47 -61 -104.5 -96t-122 -52.5t-133 -22.5t-138.5 -7h-352zM420 236h82q35 0 62.5 1t58.5 11q16 4 40.5 16t48 35t40 57.5t16.5 83.5q0 14 -5 49t-34 70q-23 29 -51.5 45.5t-60 24.5t-65.5 10t-67 2h-65v-405zM420 831h51q55 0 107.5 5.5t99.5 40.5 q23 16 48.5 52t25.5 103q0 16 -4.5 48t-32.5 67q-41 51 -97.5 61.5t-115.5 12.5h-82v-390z" />
<glyph unicode="C" horiz-adv-x="1097" d="M74 723q0 27 3 78t15 115.5t38 136t73 141.5q55 84 113.5 130t91.5 65q49 27 97 43t91 24t77 10t54 2q106 0 175 -23.5t106 -39.5v-256q-29 14 -88.5 35.5t-149.5 21.5q-57 0 -100 -10t-75 -27.5t-54.5 -37t-36.5 -37.5q-18 -23 -40 -56.5t-40 -80t-29.5 -104.5 t-11.5 -130q0 -18 2 -57t12.5 -87.5t32 -102.5t59.5 -103q16 -23 41 -45.5t60 -43t83 -32.5t111 -12q90 0 147.5 19.5t90.5 35.5v-258q-41 -16 -111.5 -38t-179.5 -22q-82 0 -163 18.5t-152 57.5q-53 29 -113.5 82t-111 134t-84 193.5t-33.5 260.5z" />
<glyph unicode="D" horiz-adv-x="1259" d="M135 0v1446h322q72 0 139 -6q160 -18 249 -68.5t138 -101.5q31 -31 65.5 -79t64.5 -115.5t49.5 -156t19.5 -194.5q0 -104 -22.5 -205.5t-69 -190.5t-119 -161t-172.5 -113q-55 -23 -110.5 -34t-103.5 -16t-85 -5h-54h-311zM422 254h74q10 0 30.5 1t46 6t55 13.5 t60.5 24.5q37 20 73 56t64.5 90.5t46 127t17.5 166.5q0 90 -17.5 159t-45 119t-62.5 83t-70 51q-57 29 -113.5 35t-74.5 6h-84v-938z" />
<glyph unicode="E" horiz-adv-x="980" d="M135 0v1446h776v-256h-491v-342h461v-234h-461v-354h491v-260h-776z" />
<glyph unicode="F" horiz-adv-x="960" d="M135 0v1446h774v-258h-489v-350h457v-238h-457v-600h-285z" />
<glyph unicode="G" horiz-adv-x="1247" d="M74 717q2 152 46 293t146 252q25 29 84.5 80t157.5 85q35 12 98.5 26.5t155.5 14.5q119 0 196.5 -21.5t124.5 -39.5l-2 -258q-35 16 -101.5 37.5t-164.5 21.5q-68 0 -119 -12t-89 -30.5t-64.5 -41t-44.5 -43.5q-45 -47 -84 -133t-39 -235q0 -88 16.5 -158t42 -122t58 -87 t65.5 -55q23 -16 66 -32.5t108 -16.5q41 0 64.5 6t40.5 12v485h274v-692q-16 -8 -33.5 -14t-34.5 -12q-14 -4 -45.5 -12.5t-72.5 -16.5t-91.5 -14.5t-101.5 -6.5q-102 0 -181 21.5t-137.5 53.5t-99.5 70t-67 71q-27 31 -56.5 78.5t-55 112.5t-43 147.5t-17.5 185.5z" />
<glyph unicode="H" horiz-adv-x="1269" d="M135 0v1446h285v-582h434v582h285v-1446h-285v618h-434v-618h-285z" />
<glyph unicode="I" horiz-adv-x="555" d="M135 0v1446h285v-1446h-285z" />
<glyph unicode="J" horiz-adv-x="598" d="M-55 -260q12 14 33.5 43t47 68.5t51 90t46.5 105.5q20 59 31.5 117.5t15.5 109t4 88v58.5v1026h285v-977q0 -84 -4 -157.5t-17.5 -144.5t-39 -139.5t-70.5 -142.5q-10 -14 -25.5 -39.5t-44.5 -56.5q-10 -14 -22.5 -26.5l-24.5 -24.5z" />
<glyph unicode="K" horiz-adv-x="1193" d="M131 0v1446h285v-680l393 680h334l-260 -426q-31 -47 -53.5 -84t-45 -71t-49 -67.5t-63.5 -74.5q31 -29 55.5 -55.5t49 -58t53 -77t69.5 -110.5l268 -422h-358l-393 682v-682h-285z" />
<glyph unicode="L" horiz-adv-x="960" d="M135 0v1446h291v-1188h485v-258h-776z" />
<glyph unicode="M" horiz-adv-x="1695" d="M98 0l45 653l25 289q10 127 21.5 253t29.5 251h348l248 -916q4 -16 8 -29.5t8 -29.5q4 -18 8.5 -35.5t8.5 -34.5q6 16 10 33t8 33t8.5 32.5t8.5 32.5l256 914h346l12 -94t10 -95q6 -57 10.5 -114.5t10.5 -114.5q8 -92 14 -184t12 -187l41 -657h-295l-26 1059 q-4 -12 -7 -25.5t-7 -25.5q-4 -14 -7.5 -27.5t-7.5 -28.5l-266 -952h-264l-258 954q-8 27 -15.5 51.5t-13.5 53.5l-35 -1059h-295z" />
<glyph unicode="N" horiz-adv-x="1247" d="M135 0v1446h301l418 -961l-16 961h278v-1446h-313l-404 924l13 -924h-277z" />
<glyph unicode="O" d="M74 717q0 39 6 113.5t35 170.5q31 98 82 183.5t123.5 149t163.5 99t202 35.5q84 0 151.5 -20.5t119 -50t86 -61t55.5 -54.5q94 -104 143 -247.5t49 -284.5v-37q0 -25 -4 -81.5t-19.5 -127t-45 -150.5t-82.5 -149q-57 -78 -122 -123t-127.5 -67.5t-116.5 -30t-89 -7.5 t-87 6.5t-112.5 29t-124 64.5t-120.5 116q-90 113 -128 246.5t-38 277.5zM379 715q0 -25 2 -75t18 -114q4 -16 19.5 -60t48.5 -92t86 -85t133 -37q72 0 123 31.5t88 91.5q33 49 58.5 130t31.5 214q0 14 -1 51t-8 86t-23.5 105.5t-47.5 105.5q-37 59 -93 96t-130 37 q-59 0 -98 -20.5t-58 -34.5q-57 -47 -87.5 -117t-44 -136.5t-15.5 -116.5t-2 -60z" />
<glyph unicode="P" horiz-adv-x="1097" d="M135 0v1446h322q70 -2 140.5 -6t136 -22.5t123.5 -53.5t106 -98q27 -35 57.5 -108t30.5 -185q0 -23 -4.5 -67t-20.5 -96t-48 -107.5t-89 -100.5q-43 -35 -92 -55.5t-101.5 -31.5t-105.5 -14t-107 -5h-63v-496h-285zM420 729h55q66 2 130.5 13.5t111.5 64.5q18 20 35.5 59 t17.5 105q0 12 -1 35.5t-10 52t-27.5 56.5t-51.5 50q-6 4 -22.5 13.5t-39.5 15.5q-31 10 -64.5 11t-64.5 3h-69v-479z" />
<glyph unicode="Q" horiz-adv-x="1353" d="M74 725q0 31 4 90t20.5 133t52 155t97.5 159q57 70 118.5 110.5t119 62t108.5 27.5t86 6q18 0 50 -2t71 -11t84 -25.5t90 -47.5q49 -31 103.5 -86t100.5 -137t75.5 -191.5t29.5 -248.5q0 -98 -14.5 -180t-37 -146.5t-49 -113t-50.5 -78.5q-20 -27 -42 -49.5t-69 -63.5 q16 -14 29.5 -28.5t27.5 -30.5q20 -23 38 -44.5t36 -43.5l135 -189h-332l-149 242q-23 -4 -45.5 -9t-67.5 -5q-23 0 -60.5 3t-85.5 15t-101.5 34.5t-104.5 61.5q-41 33 -88 86t-87 131t-66.5 180.5t-26.5 233.5zM375 719q0 -129 27.5 -208t58.5 -126q8 -14 29.5 -43 t58.5 -51q16 -10 49 -23.5t86 -13.5q16 0 56 6t81 35q45 33 77 84t50.5 110.5t26.5 121t8 110.5v21q0 109 -19 180q-22 77 -49 125q-8 14 -25.5 39.5t-46 51t-69.5 44t-94 18.5q-51 0 -86 -15.5t-51 -25.5q-66 -43 -99.5 -114.5t-49 -141t-17.5 -124t-2 -60.5z" />
<glyph unicode="R" horiz-adv-x="1173" d="M129 0v1446h342q70 0 138.5 -4t132 -21.5t121 -52.5t104.5 -96q23 -33 51.5 -96.5t28.5 -163.5q0 -104 -47.5 -201.5t-143.5 -151.5q-29 -16 -64.5 -26t-101.5 -23q8 -8 14.5 -15t14.5 -13q10 -8 19.5 -15.5t25.5 -23.5q29 -35 58.5 -78t80.5 -119l19 -24l223 -322h-352 l-379 600v-600h-285zM414 768h55q47 2 96 6t90 27q14 8 33 22.5t34 37t25.5 55t10.5 75.5q0 16 -5 56t-36 79q-45 57 -109.5 67.5t-130.5 10.5h-63v-436z" />
<glyph unicode="S" horiz-adv-x="1003" d="M74 1071q0 78 26.5 133.5t42.5 77.5q74 106 182.5 144t233.5 38q43 0 87 -4t83 -8t66.5 -10t40.5 -8q31 -6 61 -19v-260q-12 4 -24.5 8t-24.5 8q-10 4 -35 11.5t-57.5 13.5t-72.5 11t-79 5q-47 0 -94 -12t-82 -51q-10 -10 -21.5 -33.5t-11.5 -58.5q0 -43 21.5 -79 t54.5 -65.5t73 -54t77 -49.5q35 -25 66.5 -46.5t64.5 -49.5q111 -96 144.5 -184.5t33.5 -153.5q0 -25 -10.5 -87.5t-51.5 -125.5q-6 -10 -17 -24.5t-30 -33.5q-49 -53 -132 -86.5t-238 -33.5q-57 0 -141.5 7t-207.5 40l2 250q35 -10 109 -27.5t178 -17.5h30.5t50.5 6 t55.5 19t50.5 40q6 10 18 34.5t12 57.5q0 51 -25.5 91t-63.5 74t-84 62.5t-87 57.5q-31 20 -60.5 41.5t-58.5 48.5q-16 12 -41.5 37.5t-51 63.5t-44 88.5t-18.5 113.5z" />
<glyph unicode="T" horiz-adv-x="1013" d="M37 1188v258h938v-258h-326v-1188h-287v1188h-325z" />
<glyph unicode="U" horiz-adv-x="1280" d="M135 535v911h285v-907v-44.5t4 -43.5q2 -25 9 -62t29.5 -70.5t64.5 -57t114 -23.5q12 0 34.5 1t48.5 9t51.5 25.5t45.5 50.5q27 45 31 105t4 112v905h285v-905q-2 -72 -7.5 -138.5t-27.5 -132.5q-16 -47 -48 -98t-87.5 -95t-137 -72t-196.5 -28q-113 0 -194 29t-136 73 t-88 94t-47 93q-10 25 -16 50.5t-10.5 56t-6.5 69.5t-4 93z" />
<glyph unicode="V" horiz-adv-x="1173" d="M33 1446h315l238 -1213l243 1213h316l-176 -713q-25 -98 -50.5 -195.5t-54.5 -195.5q-23 -86 -48 -171t-56 -171h-354q-29 86 -55.5 171t-49.5 171q-29 98 -52.5 193.5t-45.5 193.5z" />
<glyph unicode="W" horiz-adv-x="1695" d="M33 1446h295l176 -1069l205 1069h282l199 -1071l180 1071h297l-156 -758q-49 -231 -104 -461q-29 -115 -61 -227h-299l-197 940l-199 -940h-303q-29 98 -53.5 196.5t-46.5 198.5q-16 66 -29.5 129.5t-28.5 128.5z" />
<glyph unicode="X" horiz-adv-x="1269" d="M51 0l182 385q41 80 67 127t46.5 82t41 65.5t52.5 75.5q-25 35 -44 65.5t-39.5 67.5t-45 85t-57.5 120l-174 373h332l225 -578l231 578h332l-174 -375q-14 -35 -30.5 -68.5t-38 -72.5t-50 -86t-67.5 -109q35 -47 59.5 -85t45 -74.5t41 -77.5t44.5 -95l193 -403h-346 l-240 588l-238 -588h-348z" />
<glyph unicode="Y" horiz-adv-x="1206" d="M39 1446h323l242 -715l246 715h321l-147 -356q-35 -84 -69.5 -166t-73.5 -164q-31 -68 -64 -133.5t-69 -134.5v-492h-289v489q-29 53 -54.5 105.5t-50.5 105.5q-45 96 -86 190.5t-82 192.5z" />
<glyph unicode="Z" horiz-adv-x="1034" d="M43 0q4 29 7 55.5t9 55.5q8 33 19.5 66.5t29 71.5t41 84t56.5 107l424 754h-520v252h878q-4 -66 -14 -118t-25.5 -99t-38 -95.5t-51.5 -107.5l-420 -770h553v-256h-948z" />
<glyph unicode="[" horiz-adv-x="598" d="M121 -377v1823h473v-211h-236v-1401h232v-211h-469z" />
<glyph unicode="\" horiz-adv-x="724" d="M29 1446h211l467 -1483h-209z" />
<glyph unicode="]" horiz-adv-x="598" d="M0 1235v211h475v-1823h-469v211h230v1401h-236z" />
<glyph unicode="^" horiz-adv-x="1492" d="M262 662l400 784h186l383 -784h-242l-239 503l-248 -503h-240z" />
<glyph unicode="_" horiz-adv-x="1024" d="M-20 -256h1064v-211h-1064v211z" />
<glyph unicode="`" horiz-adv-x="598" d="M-305 1493h289l344 -369h-201z" />
<glyph unicode="a" horiz-adv-x="1044" d="M68 270q0 51 14 92t34.5 71t42 49.5t36.5 29.5q94 72 209.5 92.5t226.5 20.5h35v37q-2 33 -7.5 58t-31.5 48q-18 16 -41 24.5t-42.5 11.5t-34.5 3h-22q-72 0 -144.5 -15.5t-135.5 -39.5q-16 -6 -32.5 -14.5t-33.5 -16.5v194q18 10 35 17.5t51 19.5q70 25 158 38.5 t160 13.5q14 0 45 -1.5t68.5 -8.5t79.5 -22.5t79 -45.5q12 -8 38 -34t42 -67q23 -49 26 -100t3 -104v-601q-47 -12 -95 -18q-37 -6 -120.5 -15.5t-188.5 -9.5q-109 0 -178.5 13.5t-114.5 32.5q-18 8 -45.5 25.5t-53.5 47t-44 72.5t-18 102zM332 297q0 -41 14 -60.5t27 -29.5 q25 -20 60.5 -30.5t101.5 -10.5q16 0 52 1t79 11v291h-29t-52.5 -2t-63.5 -7t-64 -18q-78 -29 -101.5 -69.5t-23.5 -75.5z" />
<glyph unicode="b" horiz-adv-x="1130" d="M119 0v1446h272l2 -574q14 18 37 39q27 27 81 57.5t146 30.5q23 0 72 -7t109 -38q35 -18 75.5 -54t74.5 -89t56.5 -129t22.5 -174q0 -29 -4 -81t-25 -118q-23 -68 -58.5 -126t-85.5 -102t-113.5 -69.5t-137.5 -25.5q-18 0 -46 3t-61.5 15t-67.5 35.5t-65 64.5 q-10 12 -34 60v-164h-250zM387 494q0 -35 4 -64t8 -39q2 -12 12.5 -40.5t32 -59.5t56.5 -54.5t88 -23.5q29 0 69.5 14.5t79.5 69.5q18 29 37 75t19 124q0 8 -1 36.5t-9.5 63.5t-26 72t-49.5 65q-25 23 -54.5 32t-60.5 11q-57 0 -96 -26.5t-63.5 -67.5t-35 -91t-10.5 -97z " />
<glyph unicode="c" horiz-adv-x="874" d="M70 496q0 86 16 143t31 86q14 33 47 81t87 92t131 75t181 31q72 0 133.5 -15.5t122.5 -44.5v-223l-6 -2q-57 41 -103 49t-77 8q-47 0 -80 -10t-49 -18q-18 -10 -43 -30t-47.5 -50.5t-38 -73.5t-15.5 -100q0 -41 8.5 -71t12.5 -44q31 -78 101 -125q67 -45 148 -45h7 q33 0 69.5 7t65.5 24q16 8 30.5 18t16.5 12l6 -2v-223l-20 -12t-21 -10q-29 -12 -83 -29t-132 -17q-23 0 -58.5 3.5t-79.5 14.5t-92 33.5t-95 63.5q-61 51 -96 111.5t-52.5 117t-21.5 102.5t-4 73z" />
<glyph unicode="d" horiz-adv-x="1120" d="M63 496q0 53 6.5 99t22.5 93q20 66 57 123t87.5 99t112 65.5t132.5 23.5q12 0 37 -2t53.5 -10t60.5 -23.5t60 -41.5q12 -12 24.5 -27.5t14.5 -17.5v569h273v-1446h-250v166q-6 -14 -17.5 -35.5t-31 -45.5t-48 -45.5t-69.5 -35.5q-39 -14 -69 -16t-46 -2q-156 0 -264 108 q-23 23 -48.5 58.5t-47 86t-36 114t-14.5 143.5zM336 492q0 -10 2 -39t10 -60q16 -70 64.5 -124t126.5 -54q35 0 59.5 10.5t34.5 18.5q39 27 73.5 85t34.5 167q0 6 -2 35.5t-8 58.5q-2 10 -12 41t-31.5 62.5t-56.5 57t-90 25.5q-14 0 -43 -5t-58 -28q-35 -27 -69.5 -87 t-34.5 -164z" />
<glyph unicode="e" horiz-adv-x="1024" d="M63 502q0 25 5.5 80t27.5 118q12 35 41 86.5t80 99.5t127 83t184 35q53 0 104.5 -10.5t98.5 -32.5q33 -16 73 -47t74.5 -79.5t59.5 -116t25 -159.5q0 -55 -8.5 -93t-12.5 -58l-598 -2q4 -20 12.5 -53.5t40.5 -73.5q53 -63 123 -82t148 -19q92 0 149 14.5t96 26.5v-196 q-47 -14 -117.5 -30t-179.5 -16q-29 0 -92 4.5t-141 30.5q-78 29 -138.5 78t-100.5 113.5t-60.5 140.5t-20.5 158zM342 555h369q1 23 1 38v13q-1 16 -5 33q-2 12 -10.5 40t-29 55.5t-53 49t-84.5 21.5q-14 0 -31.5 -2t-37 -11.5t-39 -25.5t-37.5 -45q-33 -51 -38 -98.5 t-5 -67.5z" />
<glyph unicode="f" horiz-adv-x="704" d="M119 0v954q0 74 2 158t31 156q12 29 35.5 62.5t61.5 62t93 48t133 19.5q39 0 85 -6t122 -29v-196q-12 4 -51 14t-84 10q-37 0 -60.5 -8t-35.5 -16q-45 -31 -52.5 -79t-7.5 -95v-78h262v-211h-262v-766h-272z" />
<glyph unicode="g" horiz-adv-x="1130" d="M63 500q0 27 3.5 76t23.5 114q20 66 55 121t84.5 96t109.5 64.5t132 23.5q14 0 43 -3t62.5 -13t69.5 -33.5t63 -62.5q16 -27 26 -51.5t21 -53.5v203h262v-823q0 -92 -9.5 -189.5t-60.5 -179.5q-23 -37 -57.5 -71.5t-86.5 -62.5t-123 -44.5t-163 -16.5q-66 0 -146.5 11.5 t-142.5 36.5q-20 6 -35.5 13t-31.5 17l2 201q14 -8 28.5 -16.5t30.5 -14.5q35 -16 97.5 -34.5t160.5 -18.5q10 0 30.5 1t45.5 5t52.5 15.5t52.5 31.5q31 27 48 58.5t25 67.5t10.5 74t2.5 75v57q-10 -23 -28 -53.5t-47.5 -57t-74.5 -45t-113 -18.5q-27 0 -81 8t-115 43 q-37 20 -77 55t-73 89.5t-54.5 129t-21.5 175.5zM338 496q0 -47 12 -94.5t38 -85t65 -61.5t92 -24q55 0 94 24t63.5 60.5t36 82.5t11.5 94q0 31 -3.5 57t-13.5 55q-16 49 -41.5 80t-53.5 47.5t-55.5 22.5t-45.5 6q-35 -2 -57.5 -11.5t-33.5 -17.5q-37 -23 -72.5 -78 t-35.5 -157z" />
<glyph unicode="h" horiz-adv-x="1120" d="M115 0v1446h276v-645q4 8 11.5 23.5t19.5 33.5q14 20 53 61.5t105 65.5q16 3 44 11q20 5 46 6q11 0 22 -1q78 0 126 -21.5t73 -39.5q43 -35 67.5 -78t35 -92t12.5 -100.5t2 -100.5v-569h-275v516q1 13 1 26q0 38 -5 82q-6 58 -47 97q-37 37 -96 37q-16 0 -47 -6.5 t-64 -32.5q-31 -25 -48 -57.5t-25.5 -68.5t-10.5 -74t-2 -73v-446h-274z" />
<glyph unicode="i" horiz-adv-x="512" d="M109 1270q0 53 12 76q10 27 39.5 48t93.5 21q53 0 83 -15.5t44 -35.5q12 -18 17 -45.5t5 -50.5q0 -6 -1 -22.5t-7 -37t-18 -40t-35 -31.5q-25 -12 -51.5 -14.5t-34.5 -2.5t-25.5 1t-39 7.5t-41 20.5t-29.5 41q-12 20 -12 80zM119 0v981h274v-981h-274z" />
<glyph unicode="j" horiz-adv-x="544" d="M-55 -375q20 23 44.5 55.5t57.5 90.5q35 61 54.5 117.5t29.5 113.5t13 117.5t3 130.5v731h273v-778q0 -47 -2 -94.5t-8 -94.5q-16 -121 -63.5 -209t-127.5 -180h-274zM129 1270q0 8 2 32.5t12 47.5q12 25 32 38t39 19t36.5 7t25.5 1q78 0 113 -34.5t37 -112.5 q0 -20 -4 -46t-19.5 -48.5t-45 -38t-81.5 -15.5q-53 0 -81.5 15.5t-44 39t-18.5 49t-3 46.5z" />
<glyph unicode="k" horiz-adv-x="1067" d="M111 0v1446h272v-903l285 438h323l-92 -139q-29 -41 -49.5 -70t-39.5 -55.5t-44 -53t-57 -63.5q-25 -27 -48.5 -52.5t-48.5 -49.5q27 -20 50.5 -42t49 -49.5t55.5 -64.5t71 -88l211 -254h-344l-322 446v-446h-272z" />
<glyph unicode="l" horiz-adv-x="512" d="M119 0v1446h272v-1446h-272z" />
<glyph unicode="m" horiz-adv-x="1705" d="M119 0v981h262v-201q10 23 31.5 61t57.5 73.5t89 61t131 25.5q18 0 49 -3t66 -17t68.5 -43t58.5 -78q10 -23 15 -42t11 -42q4 10 17.5 40t36.5 58q33 43 70.5 69t73.5 39t67.5 17.5t52.5 4.5q53 0 94 -12.5t72 -30t52.5 -38t33.5 -38.5q25 -33 37 -73t17 -82t6 -85t1 -82 v-563h-274v512q-2 96 -14.5 147.5t-59.5 77.5q-23 12 -42 15.5t-30 3.5q-27 -2 -68.5 -17.5t-76.5 -74.5q-27 -45 -31 -89.5t-4 -95.5v-479h-274v500q0 74 -5 118t-24 74q-25 43 -61.5 53.5t-53.5 10.5q-25 -2 -62.5 -15.5t-70.5 -62.5q-35 -49 -40 -103.5t-7 -111.5v-463 h-272z" />
<glyph unicode="n" horiz-adv-x="1130" d="M119 0v981h262v-201q2 4 19.5 36t37.5 58q33 45 69 71t69.5 38t64.5 15t53 3q23 0 76 -7t109 -44q49 -33 76.5 -77t40 -95t14.5 -104t2 -105v-569h-275v516q1 18 1 37t-1 38q-2 38 -14 73q-4 12 -13.5 27.5t-24.5 30.5t-38.5 25.5t-56.5 10.5q-14 0 -46 -6.5t-65 -30.5 q-31 -25 -48 -57.5t-26.5 -69.5t-11.5 -75t-2 -73v-446h-272z" />
<glyph unicode="o" horiz-adv-x="1097" d="M63 492q0 20 2.5 56t12.5 81t30.5 96t57.5 100q47 63 104.5 100.5t110.5 55.5t99 22.5t73 4.5q72 0 127 -14.5t97 -35t72 -45t50 -45.5q70 -76 101.5 -173t31.5 -199q0 -25 -4 -74t-24 -115q-12 -41 -41 -97t-82.5 -109.5t-135 -90.5t-198.5 -37q-86 0 -142.5 17.5 t-85.5 34.5q-37 18 -81.5 54t-83.5 92t-65 136t-26 185zM338 498q0 -12 2 -46t12 -69q4 -12 15.5 -42t35 -59.5t60.5 -52t92 -22.5q59 0 98 28.5t62.5 71.5t33 95.5t9.5 99.5q0 16 -3 54t-20 81q-4 12 -16 36.5t-33.5 48t-55.5 41t-79 17.5q-41 0 -66.5 -11t-38.5 -19 q-39 -27 -73.5 -86.5t-34.5 -165.5z" />
<glyph unicode="p" horiz-adv-x="1130" d="M119 -373v1354h260v-197q12 29 18 41.5t17 28.5q10 18 30.5 43t51 47.5t74.5 37.5t102 15q55 0 98 -14t77 -34.5t55.5 -41t33.5 -35.5q68 -78 97.5 -177t29.5 -203q0 -25 -5 -85.5t-30 -127.5q-10 -29 -34.5 -79t-69.5 -98.5t-115 -83t-168 -34.5q-27 0 -85 9t-116 56 q-16 14 -26.5 25.5t-22.5 27.5v-475h-272zM389 479q0 -41 5 -69.5t9 -44.5q2 -10 13.5 -38t33 -56.5t56.5 -50.5q32 -19 77 -19h9q12 0 37.5 6t54.5 24q59 41 84 115t25 141q0 63 -19.5 125t-66.5 103q-35 31 -69 38t-50 7q-53 0 -92 -27t-73 -87t-34 -167z" />
<glyph unicode="q" horiz-adv-x="1120" d="M63 485q0 47 5.5 92.5t17.5 90.5q8 27 29.5 82t66.5 110t115 96t174 41q16 0 44 -3t60.5 -15t65.5 -34.5t61 -63.5q10 -16 19.5 -35t21.5 -55v190h263v-1354h-275v473q-14 -16 -36.5 -36.5t-54.5 -38t-74 -29.5t-97 -12q-23 0 -78 7t-115 42q-35 20 -72.5 57t-68.5 92.5 t-51.5 131t-20.5 171.5zM338 477q0 -41 5 -70.5t9 -41.5q2 -12 13.5 -39t33 -54.5t55.5 -49t83 -21.5q12 0 38.5 4t55.5 22q41 25 75.5 86.5t34.5 171.5q0 14 -2 45t-12 68q-4 12 -14.5 39t-32 55.5t-55 50t-84.5 21.5q-16 0 -44 -6t-57 -29q-37 -27 -69.5 -87t-32.5 -165z " />
<glyph unicode="r" horiz-adv-x="788" d="M119 0v981h262v-221q4 16 14.5 47t34.5 65q43 61 110.5 93t141.5 32q16 0 36.5 -2t53.5 -10v-264q-20 8 -49 18.5t-76 10.5q-53 -2 -90 -16.5t-53 -26.5q-35 -25 -56.5 -53.5t-33 -62.5t-15.5 -72t-6 -77v-442h-274z" />
<glyph unicode="s" horiz-adv-x="841" d="M70 29l2 207q27 -10 47 -17q72 -20 137.5 -26.5t89.5 -6.5q82 0 112.5 31t30.5 74q0 25 -12 46t-53 48q-41 29 -86 47.5t-88 40.5q-74 41 -127 100.5t-53 151.5q0 20 9 67.5t44 94.5q57 74 136 95.5t169 21.5q86 0 163 -12.5t161 -35.5v-208q-49 12 -86 21t-66 15.5 t-53.5 8.5t-50.5 2q-80 0 -116 -27t-38 -70q0 -4 2 -14t6 -20q8 -18 27.5 -34t42 -28t46 -22.5t40.5 -16.5q23 -10 43 -19t43 -20q84 -41 135 -99t51 -159q0 -20 -8 -70.5t-47 -99.5q-59 -74 -146.5 -96.5t-177.5 -22.5q-92 0 -167.5 13.5t-161.5 38.5z" />
<glyph unicode="t" horiz-adv-x="724" d="M119 344v793l272 159v-317h271v-213h-271v-381q0 -35 3 -68.5t24 -62.5q16 -23 49 -38t92 -15q41 0 69.5 4t45.5 8v-213q-23 -4 -72 -11t-115 -7q-43 0 -74.5 3t-47.5 7q-16 2 -44 10t-60 26.5t-61.5 48t-49.5 77.5q-14 33 -20.5 73.5t-10.5 116.5z" />
<glyph unicode="u" horiz-adv-x="1120" d="M119 467v514h272v-520q0 -39 4 -86t23 -82q12 -23 47 -51q32 -25 87 -25h4h9q12 0 45 4t64 29q37 33 48 84q9 43 9 116v27v504h275v-504q0 -43 -2.5 -88t-9.5 -89t-21.5 -85t-38.5 -76q-18 -27 -50 -55.5t-77 -52t-105.5 -39t-140.5 -15.5q-12 0 -37.5 1.5t-57.5 6.5 t-70 15t-74 29q-51 25 -96.5 66.5t-67.5 92.5q-12 25 -19.5 51.5t-11.5 58.5t-6 73t-2 96z" />
<glyph unicode="v" horiz-adv-x="1087" d="M33 981h307l203 -739l209 739h309l-139 -401q-45 -117 -89.5 -235t-95.5 -232q-12 -29 -24.5 -56.5t-26.5 -56.5h-278q-16 41 -35 81t-35 81q-16 35 -31.5 67.5t-30.5 67.5q-25 61 -48 123.5t-46 126.5z" />
<glyph unicode="w" horiz-adv-x="1609" d="M33 981h289l170 -670l186 670h252l184 -674l172 674h287l-111 -379q-10 -31 -19 -62.5t-20 -64.5q-25 -80 -51 -159.5t-55 -157.5q-14 -41 -28.5 -79t-31.5 -79h-270l-182 664l-189 -664h-272q-10 25 -19.5 48.5t-19.5 47.5q-23 57 -41 114.5t-37 117.5q-23 68 -43 136 t-43 138z" />
<glyph unicode="x" horiz-adv-x="1097" d="M33 0l178 291q27 43 48.5 73.5t38.5 54t32.5 42t31.5 37.5q-27 35 -54 67.5t-50 71.5q-4 10 -9 21.5t-11 21.5q-6 14 -17 29l-149 272h307l178 -363l180 363h299l-127 -244q-23 -41 -38 -69.5t-31.5 -54t-36 -52t-45.5 -63.5q47 -59 83 -114.5t72 -121.5l13 -18l137 -244 h-315l-193 375l-195 -375h-327z" />
<glyph unicode="y" horiz-adv-x="1097" d="M33 981h305l209 -733l211 733h307l-139 -395q-53 -143 -109.5 -282.5t-116.5 -280.5q-43 -100 -89 -198.5t-89 -201.5h-293l170 393q-16 35 -31.5 70t-29.5 70q-47 104 -87 210.5t-79 213.5z" />
<glyph unicode="z" horiz-adv-x="927" d="M47 0q4 53 17.5 98t33 86t45 80t56.5 80l303 422h-418v215h799q-4 -27 -9.5 -52.5t-13.5 -49.5q-16 -55 -47 -109.5t-94 -144.5l-283 -402h438v-223h-827z" />
<glyph unicode="{" horiz-adv-x="724" d="M106 504v14q29 6 56 21q39 23 59.5 60.5t28.5 80.5t8 87v81v254v56.5t2 55.5q4 94 37 171t129 116q25 10 50.5 15.5t56 8.5t69.5 4t92 3v-14q-27 -6 -59 -17q-14 -4 -34.5 -13t-41 -26.5t-39 -45t-28.5 -66.5q-8 -31 -9.5 -71t-1.5 -105v-197q0 -74 -1 -131.5t-6 -103.5 t-17.5 -81.5t-34.5 -66.5q-27 -35 -60.5 -53.5t-74.5 -30.5q53 -16 80.5 -34.5t48.5 -39.5q27 -31 40 -64.5t19 -77.5t7 -99.5t1 -128.5v-224q0 -59 3 -121.5t38 -117.5q33 -51 75 -68.5t95 -34.5v-12q-41 0 -83 1t-83 5q-45 6 -92 21.5t-84 46.5t-55 69.5t-26.5 82.5 t-9.5 89t-1 86v351q0 55 -9 104t-46 96q-23 29 -53 47q-16 8 -27.5 11.5t-18.5 5.5z" />
<glyph unicode="|" horiz-adv-x="468" d="M129 -512v2044h211v-2044h-211z" />
<glyph unicode="}" horiz-adv-x="724" d="M31 -500q55 14 97 32.5t75 66.5q14 25 23.5 47t12.5 50t4 63.5t1 84.5v199q0 74 1 131t6 103.5t17.5 82t34.5 66.5q27 35 61.5 52.5t75.5 29.5q-57 16 -83.5 34.5t-45.5 41.5q-27 31 -41 64.5t-20 76.5t-7 98.5t-1 128.5v224q2 94 -4.5 143t-32.5 92q-33 51 -77 70.5 t-97 36.5v14q25 -2 50 -2t50 -2q66 -4 127 -14.5t115 -57.5q37 -31 55 -69.5t26.5 -81.5t9.5 -88.5t1 -88.5v-262q0 -70 3 -142.5t44 -131.5q4 -8 21.5 -26.5t41.5 -33.5q8 -4 16.5 -8t26.5 -10v-12q-16 -4 -28 -8.5t-27 -14.5q-39 -23 -59.5 -60.5t-28.5 -80.5t-8 -87v-81 v-254v-94t-8 -94q-4 -18 -11.5 -46t-23.5 -58t-46 -58.5t-77 -46.5q-25 -10 -50.5 -16.5t-57 -8.5t-70.5 -3t-92 -3v12z" />
<glyph unicode="~" horiz-adv-x="1492" d="M231 604q39 57 79 93t78 55.5t75 26.5t67 7q59 0 111.5 -20.5t106.5 -44.5l71 -33q2 0 16.5 -7t36 -15.5t47 -14.5t48.5 -6q47 0 94 27.5t106 99.5l95 -182q-10 -10 -36 -37t-65 -55.5t-90 -51t-110 -22.5t-109.5 20.5t-101.5 44.5l-60 29q-37 16 -77 31.5t-81 15.5 q-10 0 -28.5 -2t-40.5 -12q-33 -14 -60.5 -43t-72.5 -82z" />
<glyph unicode="&#xa1;" horiz-adv-x="598" d="M96 0l41 1026h225l48 -1026h-314zM98 1294q0 33 5.5 54.5t11.5 33.5q12 27 33.5 41.5t43 20.5t39 6h25.5q20 0 36.5 -2t35.5 -8q33 -10 50 -30.5t25.5 -43.5t8.5 -43v-31q0 -8 -1 -30.5t-10 -44.5q-16 -47 -56 -63.5t-87 -16.5q-160 -1 -160 157z" />
<glyph unicode="&#xa3;" horiz-adv-x="1087" d="M53 0l330 1079l6 17q16 49 32.5 94t40 85t54.5 74.5t76 63.5q47 29 98 41t105 12q18 0 40.5 -2t47 -5t48 -8t40.5 -11q16 -4 19 -6t26 -11v-215q-49 16 -87 21.5t-57 5.5q-37 0 -59 -8t-37 -15q-49 -29 -67.5 -71.5t-34.5 -96.5l-58 -206h316v-226h-379l-100 -354h559 v-258h-959z" />
<glyph unicode="&#xa4;" d="M51 221l162 160q-14 20 -30.5 49t-31 67t-24.5 88t-10 111q0 123 33.5 197t60.5 115l-158 159l158 158l158 -160q14 10 27.5 18.5t27.5 16.5q31 16 97.5 40t162.5 24q66 0 132.5 -15.5t121.5 -46.5q16 -8 29.5 -16t29.5 -19l158 158l160 -158l-160 -159q6 -10 16.5 -26.5 t24.5 -41.5q37 -78 45 -146.5t8 -99.5q0 -61 -10 -111.5t-25.5 -88t-32 -66.5t-30.5 -49l164 -162l-160 -158l-162 164q-16 -10 -31.5 -20t-31.5 -19q-29 -14 -92.5 -35.5t-155.5 -21.5t-157.5 22.5t-94.5 38.5q-16 8 -30.5 16.5t-30.5 18.5l-160 -160zM324 694 q0 -55 10 -92t20 -57q43 -98 134.5 -155.5t197.5 -57.5q55 0 94 12t58 21q98 47 150 136t54 195q0 16 -3 51t-19 78q-39 106 -132 170t-206 64q-35 -2 -71 -8.5t-70 -20.5q-104 -45 -160.5 -135t-56.5 -201z" />
<glyph unicode="&#xa6;" horiz-adv-x="468" d="M129 389h211v-780h-211v780zM129 631v780h211v-780h-211z" />
<glyph unicode="&#xa7;" horiz-adv-x="927" d="M70 743q0 70 33.5 128.5t99.5 86.5q35 16 67.5 19.5t42.5 3.5q-23 16 -36 31.5t-29 40.5q-10 16 -24.5 49t-14.5 82q0 45 18 88q16 37 55.5 83t116.5 91h322q-25 -12 -71 -41t-95 -86q-23 -27 -39 -54.5t-14 -62.5q0 -37 11 -60.5t22 -33.5q14 -18 39.5 -42t53 -46.5 t54.5 -43t45 -34.5q61 -51 99 -103.5t38 -136.5q0 -12 -3 -38.5t-14 -57.5t-33.5 -62.5t-61.5 -51.5q-41 -23 -78 -26t-51 -5q8 -8 25.5 -24.5t33.5 -42t28.5 -58.5t12.5 -76q0 -47 -15.5 -85t-42 -68.5t-59.5 -57t-69 -49.5h-330q49 29 99 61.5t87 79.5q27 33 34 58.5 t7 44.5q0 35 -15.5 63.5t-37.5 50.5q-35 35 -80 69t-84 65q-63 49 -105 107t-42 144zM307 752q0 -51 27.5 -79t40.5 -38q4 -4 13 -11.5t24 -15.5q12 -6 43.5 -19.5t62.5 -13.5q4 0 13.5 1.5t25.5 7.5q33 10 52.5 38.5t19.5 63.5q0 18 -10.5 47t-43.5 62q-45 41 -88 54 t-65 13q-49 -2 -82 -31.5t-33 -78.5z" />
<glyph unicode="&#xa8;" horiz-adv-x="598" d="M-240 1288q0 18 3.5 41t16.5 43.5t38.5 33.5t72.5 13t75 -14t41 -33.5t17.5 -43.5t4.5 -44q0 -47 -14.5 -74.5t-35 -41t-45 -16.5t-43.5 -3q-41 0 -62.5 9t-37.5 24q-23 23 -27 49t-4 57zM180 1288q0 18 3 41t16.5 42.5t40 33.5t71.5 14t68.5 -10t40.5 -25 q10 -12 20.5 -35.5t10.5 -64.5q0 -47 -14.5 -74.5t-35 -41t-45 -16.5t-43.5 -3q-23 0 -34 2t-21 6q-31 8 -47 26.5t-22.5 39t-7.5 39t-1 26.5z" />
<glyph unicode="&#xa9;" horiz-adv-x="1705" d="M125 725q0 90 17.5 165t43 133t54 100t51.5 69q29 33 77 78t117.5 85t161.5 68.5t209 28.5q29 0 76 -4t105.5 -17.5t123 -42t129.5 -77.5q37 -27 87 -76t96.5 -123t78 -172t31.5 -221q0 -33 -6 -85t-24.5 -116.5t-53.5 -136.5t-96 -141q-104 -119 -246.5 -182.5 t-302.5 -63.5q-156 0 -297 61.5t-246 175.5q-66 70 -102.5 144t-55 140.5t-23.5 120.5t-5 89zM190 723q0 -133 50 -252q37 -94 100 -170t144 -130t175.5 -83t196.5 -29q51 0 106.5 9.5t104.5 25.5q102 33 184 95.5t140.5 145.5t91.5 181.5t33 204.5q0 27 -3.5 71t-16.5 97 t-39.5 113.5t-72.5 121.5q-25 33 -68.5 78t-108 86t-152.5 69.5t-199 28.5q-27 0 -69 -3t-94 -16t-111.5 -38.5t-118.5 -68.5q-33 -25 -80 -69t-90 -110.5t-73 -155.5t-30 -202zM371 725q0 20 2 54t12 76t30.5 88t55.5 93q20 27 53 59.5t82 61.5t113.5 48.5t148.5 19.5 q82 0 146.5 -19.5t112 -47.5t81 -58.5t56.5 -55.5l-148 -139q-53 57 -110.5 89t-137.5 32q-16 0 -56 -5t-83 -28q-78 -39 -114.5 -112.5t-36.5 -155.5q0 -66 21.5 -120t60 -94t93 -61.5t119.5 -21.5q51 0 91.5 12.5t70 30.5t50 37.5t32.5 34.5l148 -135q-23 -25 -55.5 -55.5 t-81 -58.5t-113 -46.5t-148.5 -18.5q-109 0 -200 37t-156.5 102.5t-102 156.5t-36.5 200z" />
<glyph unicode="&#xab;" horiz-adv-x="874" d="M57 492l252 333h148l-164 -336l162 -335h-146zM420 492l254 333h145l-162 -336l162 -335h-145z" />
<glyph unicode="&#xac;" d="M0 496v211h1366v-707h-211v496h-1155z" />
<glyph unicode="&#xad;" d="M0 496v211h1366v-211h-1366z" />
<glyph unicode="&#xae;" horiz-adv-x="1705" d="M125 725q0 90 17.5 165t43 133t54 100t51.5 69q29 33 77 78t117.5 85t161.5 68.5t209 28.5q174 0 326.5 -74.5t259.5 -218.5q72 -98 107.5 -208.5t33.5 -231.5q0 -33 -5 -85t-23.5 -114.5t-53.5 -132.5t-92 -137q-72 -86 -153.5 -137.5t-157.5 -77t-140.5 -33.5 t-103.5 -8q-123 0 -236.5 39t-209.5 110q-35 27 -84.5 76t-93.5 121t-74.5 168t-30.5 217zM190 723q0 -133 50 -252q37 -94 100 -170t144 -130t175.5 -83t196.5 -29q31 0 89.5 6.5t133.5 32.5q100 35 181 97.5t137.5 144.5t88.5 179.5t32 201.5q0 27 -3.5 70t-16.5 96 t-38.5 112.5t-70.5 120.5q-25 33 -69 79t-109.5 87t-153.5 70.5t-201 29.5q-27 0 -69 -3t-94 -16t-111.5 -38.5t-118.5 -68.5q-33 -25 -80 -69t-90 -110.5t-73 -155.5t-30 -202zM528 266v928h318q41 0 85 -1t86 -8t80 -25.5t68 -55.5q37 -47 46.5 -91t9.5 -65 q0 -57 -18.5 -91t-35.5 -50q-14 -14 -27.5 -25.5t-29.5 -21.5q-18 -10 -27.5 -13.5t-40.5 -15.5q29 -14 39.5 -21.5t22.5 -19.5q20 -20 31.5 -47t17.5 -54.5t10 -56t8 -55.5l6.5 -32.5t11.5 -52.5t19.5 -62.5t28.5 -63.5h-223q-4 6 -6 13.5t-7 13.5q-18 47 -26 104.5 t-17 106.5q-10 66 -21 94.5t-42 48.5q-25 14 -48.5 16.5t-76.5 4.5h-47v-402h-195zM723 823h119q72 0 110.5 11.5t57.5 46.5q10 16 13 32.5t3 24.5q0 23 -14 55q-23 41 -64 46t-82 5h-143v-221z" />
<glyph unicode="&#xb0;" horiz-adv-x="724" d="M10 1194q0 74 28 138.5t76 111.5t111 74.5t137 27.5t138.5 -28.5t111.5 -76.5t75 -111.5t28 -137.5t-28 -137.5t-76 -111.5t-111.5 -75.5t-137.5 -27.5t-138 28.5t-111 76.5t-75 112.5t-28 136.5zM215 1192q2 -61 45 -104.5t102 -43.5q61 0 104.5 44.5t43.5 103.5 t-44.5 102t-103.5 43q-61 0 -104 -43t-43 -102z" />
<glyph unicode="&#xb1;" d="M86 0v211h1194v-211h-1194zM86 766v211h494v461h211v-461h489v-211h-489v-463h-211v463h-494z" />
<glyph unicode="&#xb4;" horiz-adv-x="598" d="M-84 1124l375 369h276l-461 -369h-190z" />
<glyph unicode="&#xb5;" horiz-adv-x="1150" d="M131 762v16.5t1 32.5t5 39.5t13 40.5q2 6 9 16.5t18 21.5t27.5 19t39.5 8q10 0 23.5 -3t29.5 -17q23 -18 35 -47t12 -84q0 -31 -8 -110t-18.5 -168t-20.5 -166.5t-16 -108.5q4 -6 16 -32.5t29 -49.5q39 -53 82 -67.5t69 -14.5q31 0 78 20.5t88 84.5q43 66 58.5 139.5 t19.5 150.5q4 33 4 66v67q0 25 -1 65t0 84t7 85t19 63q14 23 35.5 33t45.5 10q10 0 30 -3t38 -21q29 -25 39 -69t10 -115q0 -76 -7 -144.5t-16.5 -126t-20.5 -100.5t-19 -68q-4 -14 -13.5 -35.5t-25.5 -52.5q10 -33 34.5 -66.5t67.5 -33.5q35 0 59.5 30.5t24.5 94.5 q0 29 -4 45l66 2q8 -16 19 -55t11 -91q0 -68 -34.5 -119t-110.5 -51q-25 0 -65 14.5t-74 61.5q-20 29 -28.5 51.5t-12.5 34.5q-37 -55 -80 -89t-84 -51t-78 -23.5t-61 -6.5q-43 0 -79 11.5t-71 33.5q-4 4 -22.5 16.5t-32.5 28.5q-8 8 -12.5 13.5t-10.5 13.5 q-8 -82 2.5 -147.5t28.5 -117.5t39.5 -91t40.5 -66q25 -41 36 -63.5t11 -46.5q-2 -41 -30.5 -66t-65.5 -25q-20 0 -34.5 5.5t-21.5 9.5q-18 10 -36.5 28.5t-34.5 57.5q-20 47 -30.5 103.5t-15.5 106.5t-5 86v44q0 78 6 177t18 177q-14 76 -23.5 157t-13.5 152.5t-6 123.5 t-2 71z" />
<glyph unicode="&#xb6;" d="M174 1022q0 47 7 83t12 52q27 92 89 160.5t154 101.5q63 23 118.5 25t78.5 2h489v-135h-71v-1653h-144v1653h-270v-1653h-143l-2 969q-35 8 -66 17t-61 26q-29 14 -62 41.5t-61.5 70.5t-48 101.5t-19.5 138.5z" />
<glyph unicode="&#xb7;" horiz-adv-x="382" d="M33 596q0 16 4 33.5t10 34.5q18 41 59 67.5t87 26.5q33 0 61.5 -13.5t50 -35t33.5 -50t12 -61.5q0 -35 -13 -64.5t-34.5 -51t-51.5 -34t-63 -12.5q-66 0 -110.5 47t-44.5 113z" />
<glyph unicode="&#xb8;" horiz-adv-x="598" d="M104 -231l2 151q49 -8 80 -24.5t47 -30.5q68 -49 86.5 -103.5t18.5 -87.5q0 -82 -52.5 -146.5t-123.5 -90.5q-23 -10 -34 -11t-24 -4v154q10 0 27 8q10 8 32.5 29.5t22.5 60.5q0 23 -15 50.5t-67 44.5z" />
<glyph unicode="&#xbb;" horiz-adv-x="874" d="M57 154l162 335l-162 336h146l254 -336l-254 -335h-146zM420 154l164 335l-164 336h145l254 -336l-254 -335h-145z" />
<glyph unicode="&#xbf;" horiz-adv-x="1013" d="M51 362q0 68 20.5 132.5t54.5 123t75 113.5t82 105q29 35 47 60.5t29.5 46t18.5 39.5t13 42h264q-2 -35 -10 -79t-49 -107q-25 -39 -50.5 -76t-53.5 -74q-43 -59 -83 -125.5t-40 -144.5q0 -90 57 -136t143 -46q61 0 133 24.5t125 56.5q16 10 30.5 19.5t31.5 19.5v-260 q-10 -4 -18.5 -10t-16.5 -10q-82 -45 -181.5 -72t-193.5 -27q-72 0 -120 12.5t-76 22.5q-111 43 -171.5 137.5t-60.5 212.5zM362 1294q0 20 4.5 48t20.5 51.5t48 40t87 16.5q47 0 73 -10t42 -25q10 -10 17.5 -21.5t9.5 -15.5q6 -12 10 -32.5t4 -53.5q0 -8 -2 -30.5 t-10 -44.5q-16 -47 -56.5 -63.5t-87.5 -16.5q-82 0 -120 36.5t-40 120.5z" />
<glyph unicode="&#xc0;" horiz-adv-x="1269" d="M33 0l203 719q16 59 32.5 117.5t32.5 117.5q16 51 32.5 102.5t33.5 102.5q23 72 45 143.5t47 143.5h354q20 -57 39.5 -114.5t36.5 -117.5q35 -104 64.5 -209.5t58.5 -211.5l30 -107l191 -686h-315l-70 285h-434l-70 -285h-311zM182 1937h289l346 -368h-203zM461 500h342 l-172 714z" />
<glyph unicode="&#xc1;" horiz-adv-x="1269" d="M33 0l203 719q16 59 32.5 117.5t32.5 117.5q16 51 32.5 102.5t33.5 102.5q23 72 45 143.5t47 143.5h354q20 -57 39.5 -114.5t36.5 -117.5q35 -104 64.5 -209.5t58.5 -211.5l30 -107l191 -686h-315l-70 285h-434l-70 -285h-311zM461 500h342l-172 714zM537 1569l374 368 h277l-463 -368h-188z" />
<glyph unicode="&#xc2;" horiz-adv-x="1269" d="M33 0l203 719q16 59 32.5 117.5t32.5 117.5q16 51 32.5 102.5t33.5 102.5q23 72 45 143.5t47 143.5h354q20 -57 39.5 -114.5t36.5 -117.5q35 -104 64.5 -209.5t58.5 -211.5l30 -107l191 -686h-315l-70 285h-434l-70 -285h-311zM256 1569l383 377l379 -377h-201l-178 145 l-178 -145h-205zM461 500h342l-172 714z" />
<glyph unicode="&#xc3;" horiz-adv-x="1269" d="M33 0l203 719q16 59 32.5 117.5t32.5 117.5q16 51 32.5 102.5t33.5 102.5q23 72 45 143.5t47 143.5h354q20 -57 39.5 -114.5t36.5 -117.5q35 -104 64.5 -209.5t58.5 -211.5l30 -107l191 -686h-315l-70 285h-434l-70 -285h-311zM195 1612q16 33 42.5 69.5t84.5 92.5 q43 41 91 75.5t109 32.5q25 0 48.5 -7t42 -15.5t31.5 -17.5t20 -11q20 -12 49.5 -28.5t56.5 -16.5q12 0 27.5 5t40.5 19q16 10 36.5 25.5t47.5 48.5h176q-29 -59 -60.5 -96t-50.5 -53q-16 -16 -31.5 -30.5t-31.5 -29.5q-6 -4 -19.5 -14t-33 -21.5t-44 -19.5t-51.5 -8 q-29 0 -59.5 11t-81.5 40q-33 18 -53.5 27.5t-38.5 9.5q-29 0 -72 -23.5t-92 -64.5h-184zM461 500h342l-172 714z" />
<glyph unicode="&#xc4;" horiz-adv-x="1269" d="M33 0l203 719q16 59 32.5 117.5t32.5 117.5q16 51 32.5 102.5t33.5 102.5q23 72 45 143.5t47 143.5h354q20 -57 39.5 -114.5t36.5 -117.5q35 -104 64.5 -209.5t58.5 -211.5l30 -107l191 -686h-315l-70 285h-434l-70 -285h-311zM276 1702q0 18 3.5 42.5t17.5 45t42 35 t75 14.5q20 0 43.5 -4t45 -17.5t36 -41t14.5 -76.5q0 -139 -139 -139q-49 0 -77 14t-41 35.5t-16.5 46t-3.5 45.5zM461 500h342l-172 714zM717 1704v26.5t10 41.5q10 27 28.5 40t39 19t37 7t22.5 1q74 0 106.5 -33.5t32.5 -105.5q0 -49 -14 -77t-36.5 -41t-46.5 -17t-42 -4 q-8 0 -25.5 1t-38 8t-39 22.5t-28.5 43.5q-4 16 -5 33t-1 35z" />
<glyph unicode="&#xc5;" horiz-adv-x="1269" d="M33 0l223 795q49 166 99.5 328.5t107.5 322.5h342q61 -170 112.5 -340t102.5 -344l213 -762h-315l-70 285h-434l-70 -285h-311zM430 1743q0 98 53.5 151.5t151.5 51.5q96 0 149.5 -52.5t53.5 -150.5q0 -35 -5.5 -56.5t-9.5 -33.5q-8 -18 -21.5 -38t-35 -37t-54 -27.5 t-77.5 -10.5q-12 0 -39 2t-55 14q-18 6 -38 19.5t-36 36t-26.5 54.5t-10.5 77zM461 500h342l-172 721zM559 1743q0 -18 13.5 -46t62.5 -28q35 0 55.5 20.5t18.5 57.5q-2 20 -15.5 46t-60.5 26q-25 0 -39 -9.5t-22.5 -21.5t-10.5 -24.5t-2 -20.5z" />
<glyph unicode="&#xc6;" horiz-adv-x="1738" d="M33 0l418 879q47 90 93 179t93 181q29 53 57.5 105.5t63.5 101.5h919v-256h-489v-344h454v-234h-458v-352h491v-260h-778v287h-410l-129 -287h-325zM580 500h317v719z" />
<glyph unicode="&#xc7;" horiz-adv-x="1097" d="M74 723q0 27 3 78t15 115.5t38 136t73 141.5q55 84 113.5 130t91.5 65q49 27 97 43t91 24t77 10t54 2q106 0 175 -23.5t106 -39.5v-256q-29 14 -88.5 35.5t-149.5 21.5q-57 0 -100 -10t-75 -27.5t-54.5 -37t-36.5 -37.5q-18 -23 -40 -56.5t-40 -80t-29.5 -104.5 t-11.5 -130q0 -18 2 -57t12.5 -87.5t32 -102.5t59.5 -103q16 -23 41 -45.5t60 -43t83 -32.5t111 -12q90 0 147.5 19.5t90.5 35.5v-258q-41 -16 -111.5 -38t-179.5 -22q-82 0 -163 18.5t-152 57.5q-53 29 -113.5 82t-111 134t-84 193.5t-33.5 260.5zM547 -231l2 151 q49 -8 79.5 -24.5t47.5 -30.5q68 -49 87 -103.5t17 -87.5q0 -82 -52 -146.5t-124 -90.5q-23 -10 -34 -11t-23 -4v154q10 0 26 8q10 8 33 29.5t23 60.5q0 23 -15.5 50.5t-66.5 44.5z" />
<glyph unicode="&#xc8;" horiz-adv-x="980" d="M39 1937h289l344 -368h-201zM135 0v1446h776v-256h-491v-342h461v-234h-461v-354h491v-260h-776z" />
<glyph unicode="&#xc9;" horiz-adv-x="980" d="M135 0v1446h776v-256h-491v-342h461v-234h-461v-354h491v-260h-776zM393 1569l373 368h276l-460 -368h-189z" />
<glyph unicode="&#xca;" horiz-adv-x="980" d="M111 1569l383 377l378 -377h-200l-176 145l-179 -145h-206zM135 0v1446h776v-256h-491v-342h461v-234h-461v-354h491v-260h-776z" />
<glyph unicode="&#xcb;" horiz-adv-x="980" d="M133 1702q0 18 4 42.5t17.5 45t41 35t76.5 14.5q18 0 43 -3t46.5 -17.5t36 -42t14.5 -76.5q0 -139 -140 -139q-49 0 -76.5 14t-42 35.5t-17.5 46t-3 45.5zM135 0v1446h776v-256h-491v-342h461v-234h-461v-354h491v-260h-776zM575 1704v26.5t11 41.5q10 27 28.5 40t39 19 t37 7t22.5 1q74 0 106.5 -33.5t32.5 -105.5q0 -49 -14.5 -77t-37 -41t-46 -17t-41.5 -4q-8 0 -25.5 1t-38 8t-40 22.5t-27.5 43.5q-4 16 -5.5 33t-1.5 35z" />
<glyph unicode="&#xcc;" horiz-adv-x="555" d="M-174 1937h289l344 -368h-201zM135 0v1446h285v-1446h-285z" />
<glyph unicode="&#xcd;" horiz-adv-x="555" d="M135 0v1446h285v-1446h-285zM178 1569l375 368h276l-460 -368h-191z" />
<glyph unicode="&#xce;" horiz-adv-x="555" d="M-102 1569l383 377l378 -377h-200l-176 145l-181 -145h-204zM135 0v1446h285v-1446h-285z" />
<glyph unicode="&#xcf;" horiz-adv-x="555" d="M-80 1702q0 18 4 42.5t17.5 45t41 35t76.5 14.5q18 0 43 -3t46.5 -17.5t36 -42t14.5 -76.5q0 -139 -140 -139q-49 0 -76.5 14t-42 35.5t-17.5 46t-3 45.5zM135 0v1446h285v-1446h-285zM360 1704q0 8 1 26.5t10 41.5q10 27 29.5 40t39 19t37 7t23.5 1q72 0 104.5 -33.5 t34.5 -105.5q0 -49 -14.5 -77t-37 -41t-47 -17t-42.5 -4q-6 0 -24.5 1t-38 8t-39 22.5t-27.5 43.5q-8 31 -9 68z" />
<glyph unicode="&#xd1;" horiz-adv-x="1247" d="M135 0v1446h301l418 -961l-16 961h278v-1446h-313l-404 924l13 -924h-277zM184 1612q16 33 43 69.5t84 92.5q43 41 91.5 75.5t109.5 32.5q25 0 48.5 -7t42 -15.5t31.5 -17.5t19 -11q20 -12 50 -28.5t55 -16.5q14 0 29.5 5t37.5 19q18 10 39 25.5t47 48.5h174 q-29 -59 -60.5 -96t-47.5 -53t-31.5 -30.5t-34.5 -29.5q-4 -4 -17 -14t-32.5 -21.5t-44 -19.5t-51.5 -8q-31 0 -60.5 11t-82.5 40q-31 18 -51.5 27.5t-39.5 9.5q-29 0 -71.5 -23.5t-91.5 -64.5h-185z" />
<glyph unicode="&#xd2;" d="M74 717q0 39 6 113.5t35 170.5q31 98 82 183.5t123.5 149t163.5 99t202 35.5q84 0 151.5 -20.5t119 -50t86 -61t55.5 -54.5q94 -104 143 -247.5t49 -284.5v-37q0 -25 -4 -81.5t-19.5 -127t-45 -150.5t-82.5 -149q-57 -78 -122 -123t-127.5 -67.5t-116.5 -30t-89 -7.5 t-87 6.5t-112.5 29t-124 64.5t-120.5 116q-90 113 -128 246.5t-38 277.5zM231 1937h289l344 -368h-200zM379 715q0 -25 2 -75t18 -114q4 -16 19.5 -60t48.5 -92t86 -85t133 -37q72 0 123 31.5t88 91.5q33 49 58.5 130t31.5 214q0 14 -1 51t-8 86t-23.5 105.5t-47.5 105.5 q-37 59 -93 96t-130 37q-59 0 -98 -20.5t-58 -34.5q-57 -47 -87.5 -117t-44 -136.5t-15.5 -116.5t-2 -60z" />
<glyph unicode="&#xd3;" d="M74 717q0 39 6 113.5t35 170.5q31 98 82 183.5t123.5 149t163.5 99t202 35.5q84 0 151.5 -20.5t119 -50t86 -61t55.5 -54.5q94 -104 143 -247.5t49 -284.5v-37q0 -25 -4 -81.5t-19.5 -127t-45 -150.5t-82.5 -149q-57 -78 -122 -123t-127.5 -67.5t-116.5 -30t-89 -7.5 t-87 6.5t-112.5 29t-124 64.5t-120.5 116q-90 113 -128 246.5t-38 277.5zM379 715q0 -25 2 -75t18 -114q4 -16 19.5 -60t48.5 -92t86 -85t133 -37q72 0 123 31.5t88 91.5q33 49 58.5 130t31.5 214q0 14 -1 51t-8 86t-23.5 105.5t-47.5 105.5q-37 59 -93 96t-130 37 q-59 0 -98 -20.5t-58 -34.5q-57 -47 -87.5 -117t-44 -136.5t-15.5 -116.5t-2 -60zM584 1569l374 368h277l-461 -368h-190z" />
<glyph unicode="&#xd4;" d="M74 717q0 39 6 113.5t35 170.5q31 98 82 183.5t123.5 149t163.5 99t202 35.5q84 0 151.5 -20.5t119 -50t86 -61t55.5 -54.5q94 -104 143 -247.5t49 -284.5v-37q0 -25 -4 -81.5t-19.5 -127t-45 -150.5t-82.5 -149q-57 -78 -122 -123t-127.5 -67.5t-116.5 -30t-89 -7.5 t-87 6.5t-112.5 29t-124 64.5t-120.5 116q-90 113 -128 246.5t-38 277.5zM303 1569l383 377l379 -377h-201l-178 145l-178 -145h-205zM379 715q0 -25 2 -75t18 -114q4 -16 19.5 -60t48.5 -92t86 -85t133 -37q72 0 123 31.5t88 91.5q33 49 58.5 130t31.5 214q0 14 -1 51 t-8 86t-23.5 105.5t-47.5 105.5q-37 59 -93 96t-130 37q-59 0 -98 -20.5t-58 -34.5q-57 -47 -87.5 -117t-44 -136.5t-15.5 -116.5t-2 -60z" />
<glyph unicode="&#xd5;" d="M74 717q0 39 6 113.5t35 170.5q31 98 82 183.5t123.5 149t163.5 99t202 35.5q84 0 151.5 -20.5t119 -50t86 -61t55.5 -54.5q94 -104 143 -247.5t49 -284.5v-37q0 -25 -4 -81.5t-19.5 -127t-45 -150.5t-82.5 -149q-57 -78 -122 -123t-127.5 -67.5t-116.5 -30t-89 -7.5 t-87 6.5t-112.5 29t-124 64.5t-120.5 116q-90 113 -128 246.5t-38 277.5zM242 1612q18 33 43.5 69.5t85.5 92.5q41 41 89 75.5t109 32.5q25 0 48.5 -7t43 -15.5t33 -17.5t19.5 -11q20 -12 49 -28.5t55 -16.5q12 0 27.5 5t40.5 19q18 10 37.5 25.5t48.5 48.5h174 q-29 -59 -60.5 -96t-48.5 -53q-33 -33 -65 -60q-6 -4 -19.5 -14t-33 -21.5t-44 -19.5t-51.5 -8q-29 0 -58.5 11t-82.5 40q-33 18 -53.5 27.5t-38.5 9.5q-29 0 -71 -23.5t-93 -64.5h-184zM379 715q0 -25 2 -75t18 -114q4 -16 19.5 -60t48.5 -92t86 -85t133 -37q72 0 123 31.5 t88 91.5q33 49 58.5 130t31.5 214q0 14 -1 51t-8 86t-23.5 105.5t-47.5 105.5q-37 59 -93 96t-130 37q-59 0 -98 -20.5t-58 -34.5q-57 -47 -87.5 -117t-44 -136.5t-15.5 -116.5t-2 -60z" />
<glyph unicode="&#xd6;" d="M74 719q0 27 3 76t14 110.5t35 132t67 140.5q57 96 124.5 153.5t134 88t127 39.5t105.5 9q129 0 235.5 -50t188.5 -148q29 -33 60.5 -84t59 -120t45 -156.5t17.5 -196.5q0 -33 -6 -111t-34.5 -172t-86 -191.5t-162.5 -166.5q-47 -33 -95 -51.5t-90 -27.5t-75.5 -12.5 t-54.5 -3.5q-18 0 -49 2.5t-70 10.5t-82 23.5t-88 41.5q-49 31 -106.5 84.5t-105.5 134t-79.5 191t-31.5 254.5zM326 1702q0 18 4 42.5t17 45t41 35t77 14.5q20 0 43.5 -4t45 -17.5t36 -41t14.5 -76.5q0 -139 -139 -139q-49 0 -77 14t-42 35.5t-17 46t-3 45.5zM379 717 q0 -18 1 -55t9 -83.5t25.5 -97.5t48.5 -100q25 -39 47 -59.5t39 -30.5q16 -12 50 -25.5t87 -13.5q72 0 121 29.5t86 87.5q33 49 51.5 104t27.5 105.5t12 88.5t3 52q4 125 -24.5 214t-53.5 130q-8 14 -25.5 36.5t-45 45t-66.5 39t-88 16.5q-20 0 -61 -8t-86 -41 q-61 -47 -109.5 -152.5t-48.5 -281.5zM766 1704q0 8 1 26.5t9 41.5q10 27 29.5 40t39 19t37 7t23.5 1q72 0 104.5 -33.5t34.5 -105.5q0 -49 -15 -77t-36.5 -41t-46 -17t-43.5 -4q-6 0 -24.5 1t-38 8t-39 22.5t-27.5 43.5q-6 16 -7 33t-1 35z" />
<glyph unicode="&#xd7;" d="M139 205l391 393l-391 393l152 152l391 -393l393 393l152 -152l-393 -393l393 -393l-152 -152l-393 393l-391 -393z" />
<glyph unicode="&#xd8;" d="M74 707q2 117 28.5 232.5t83.5 215.5q18 35 57.5 88t101 103.5t149.5 86t204 35.5q117 0 188.5 -31.5t110.5 -60.5l93 152l157 -10l-143 -236q31 -35 63.5 -83t60 -113.5t45 -151.5t17.5 -195q0 -31 -3 -91t-20.5 -136t-52 -160t-96.5 -162q-23 -27 -59.5 -63.5t-90 -69 t-126 -55t-164.5 -22.5q-47 0 -131 15t-185 81l-88 -146l-155 9l139 227q-66 76 -102.5 158t-55 156.5t-22.5 134t-4 92.5zM373 694q0 -98 16.5 -157.5t32.5 -100.5l434 709q-37 29 -75 44t-85 13q-96 0 -158.5 -53t-99.5 -131t-51 -166t-14 -158zM508 311q41 -31 78 -46 t88 -15q76 0 135 37q33 20 65.5 62t58 101.5t42 137.5t16.5 172q0 100 -14 162.5t-31 103.5z" />
<glyph unicode="&#xd9;" horiz-adv-x="1280" d="M135 535v911h285v-907v-44.5t4 -43.5q2 -25 9 -62t29.5 -70.5t64.5 -57t114 -23.5q12 0 34.5 1t48.5 9t51.5 25.5t45.5 50.5q27 45 31 105t4 112v905h285v-905q-2 -72 -7.5 -138.5t-27.5 -132.5q-16 -47 -48 -98t-87.5 -95t-137 -72t-196.5 -28q-113 0 -194 29t-136 73 t-88 94t-47 93q-10 25 -16 50.5t-10.5 56t-6.5 69.5t-4 93zM188 1937h289l344 -368h-200z" />
<glyph unicode="&#xda;" horiz-adv-x="1280" d="M135 535v911h285v-907v-44.5t4 -43.5q2 -25 9 -62t29.5 -70.5t64.5 -57t114 -23.5q12 0 34.5 1t48.5 9t51.5 25.5t45.5 50.5q27 45 31 105t4 112v905h285v-905q-2 -72 -7.5 -138.5t-27.5 -132.5q-16 -47 -48 -98t-87.5 -95t-137 -72t-196.5 -28q-113 0 -194 29t-136 73 t-88 94t-47 93q-10 25 -16 50.5t-10.5 56t-6.5 69.5t-4 93zM543 1569l372 368h277l-461 -368h-188z" />
<glyph unicode="&#xdb;" horiz-adv-x="1280" d="M135 535v911h285v-907v-44.5t4 -43.5q2 -25 9 -62t29.5 -70.5t64.5 -57t114 -23.5q12 0 34.5 1t48.5 9t51.5 25.5t45.5 50.5q27 45 31 105t4 112v905h285v-905q-2 -72 -7.5 -138.5t-27.5 -132.5q-16 -47 -48 -98t-87.5 -95t-137 -72t-196.5 -28q-113 0 -194 29t-136 73 t-88 94t-47 93q-10 25 -16 50.5t-10.5 56t-6.5 69.5t-4 93zM260 1569l383 377l379 -377h-201l-176 145l-180 -145h-205z" />
<glyph unicode="&#xdc;" horiz-adv-x="1280" d="M135 535v911h285v-907v-44.5t4 -43.5q2 -25 9 -62t29.5 -70.5t64.5 -57t114 -23.5q12 0 34.5 1t48.5 9t51.5 25.5t45.5 50.5q27 45 31 105t4 112v905h285v-905q-2 -72 -7.5 -138.5t-27.5 -132.5q-16 -47 -48 -98t-87.5 -95t-137 -72t-196.5 -28q-113 0 -194 29t-136 73 t-88 94t-47 93q-10 25 -16 50.5t-10.5 56t-6.5 69.5t-4 93zM281 1702q0 18 4 42.5t17 45t41 35t77 14.5q20 0 43.5 -4t45 -17.5t36 -41t14.5 -76.5q0 -139 -139 -139q-6 0 -22.5 1t-35 6t-37 17t-30.5 35q-10 23 -12 49.5t-2 32.5zM721 1704q0 33 8 60.5t35 47.5t56.5 23.5 t39.5 3.5q139 0 139 -139t-141 -139q-6 0 -24.5 1t-38 8t-39 22.5t-27.5 43.5q-8 31 -8 68z" />
<glyph unicode="&#xdf;" horiz-adv-x="1110" d="M129 0v963q2 90 13.5 178t70.5 164q18 25 49 53t77 52t105.5 40t137.5 16q72 0 122 -13t76 -23q106 -45 172 -143.5t66 -217.5q0 -70 -25.5 -142.5t-68.5 -125.5q-25 -29 -46.5 -46.5t-33.5 -25.5q23 -8 44 -16t42 -23q33 -23 69.5 -76t36.5 -149q0 -20 -3 -52t-17 -75 q-6 -16 -18.5 -48t-34 -71t-53 -81t-72.5 -79q-25 -23 -39.5 -33t-42.5 -26h-279q18 12 27.5 17.5t15.5 10.5t15.5 14t29.5 30q4 4 36 38.5t69 87t65.5 117t28.5 129.5q0 55 -18.5 93t-44 63t-52 38t-43.5 19q-14 4 -24.5 7.5t-32.5 7.5q12 10 29.5 24.5t42.5 38.5 q57 59 96 138t39 165q0 31 -4 53.5t-9 32.5q-20 53 -64 87t-104 34q-12 0 -39.5 -4t-56.5 -27t-44 -54.5t-22 -68t-8.5 -73.5t-1.5 -68v-950h-274z" />
<glyph unicode="&#xe0;" horiz-adv-x="1044" d="M68 270q0 51 14 92t34.5 71t42 49.5t36.5 29.5q94 72 209.5 92.5t226.5 20.5h35v37q-2 33 -7.5 58t-31.5 48q-18 16 -41 24.5t-42.5 11.5t-34.5 3h-22q-72 0 -144.5 -15.5t-135.5 -39.5q-16 -6 -32.5 -14.5t-33.5 -16.5v194q18 10 35 17.5t51 19.5q70 25 158 38.5 t160 13.5q14 0 45 -1.5t68.5 -8.5t79.5 -22.5t79 -45.5q12 -8 38 -34t42 -67q23 -49 26 -100t3 -104v-601q-47 -12 -95 -18q-37 -6 -120.5 -15.5t-188.5 -9.5q-109 0 -178.5 13.5t-114.5 32.5q-18 8 -45.5 25.5t-53.5 47t-44 72.5t-18 102zM111 1493h288l346 -369h-202z M332 297q0 -41 14 -60.5t27 -29.5q25 -20 60.5 -30.5t101.5 -10.5q16 0 52 1t79 11v291h-29t-52.5 -2t-63.5 -7t-64 -18q-78 -29 -101.5 -69.5t-23.5 -75.5z" />
<glyph unicode="&#xe1;" horiz-adv-x="1044" d="M68 270q0 51 14 92t34.5 71t42 49.5t36.5 29.5q94 72 209.5 92.5t226.5 20.5h35v37q-2 33 -7.5 58t-31.5 48q-18 16 -41 24.5t-42.5 11.5t-34.5 3h-22q-72 0 -144.5 -15.5t-135.5 -39.5q-16 -6 -32.5 -14.5t-33.5 -16.5v194q18 10 35 17.5t51 19.5q70 25 158 38.5 t160 13.5q14 0 45 -1.5t68.5 -8.5t79.5 -22.5t79 -45.5q12 -8 38 -34t42 -67q23 -49 26 -100t3 -104v-601q-47 -12 -95 -18q-37 -6 -120.5 -15.5t-188.5 -9.5q-109 0 -178.5 13.5t-114.5 32.5q-18 8 -45.5 25.5t-53.5 47t-44 72.5t-18 102zM332 297q0 -41 14 -60.5t27 -29.5 q25 -20 60.5 -30.5t101.5 -10.5q16 0 52 1t79 11v291h-29t-52.5 -2t-63.5 -7t-64 -18q-78 -29 -101.5 -69.5t-23.5 -75.5zM334 1124l373 369h276l-461 -369h-188z" />
<glyph unicode="&#xe2;" horiz-adv-x="1044" d="M68 270q0 51 14 92t34.5 71t42 49.5t36.5 29.5q94 72 209.5 92.5t226.5 20.5h35v37q-2 33 -7.5 58t-31.5 48q-18 16 -41 24.5t-42.5 11.5t-34.5 3h-22q-72 0 -144.5 -15.5t-135.5 -39.5q-16 -6 -32.5 -14.5t-33.5 -16.5v194q18 10 35 17.5t51 19.5q70 25 158 38.5 t160 13.5q14 0 45 -1.5t68.5 -8.5t79.5 -22.5t79 -45.5q12 -8 38 -34t42 -67q23 -49 26 -100t3 -104v-601q-47 -12 -95 -18q-37 -6 -120.5 -15.5t-188.5 -9.5q-109 0 -178.5 13.5t-114.5 32.5q-18 8 -45.5 25.5t-53.5 47t-44 72.5t-18 102zM143 1124l383 377l379 -379h-200 l-179 146l-178 -144h-205zM332 297q0 -41 14 -60.5t27 -29.5q25 -20 60.5 -30.5t101.5 -10.5q16 0 52 1t79 11v291h-29t-52.5 -2t-63.5 -7t-64 -18q-78 -29 -101.5 -69.5t-23.5 -75.5z" />
<glyph unicode="&#xe3;" horiz-adv-x="1044" d="M68 270q0 51 14 92t34.5 71t42 49.5t36.5 29.5q94 72 209.5 92.5t226.5 20.5h35v37q-2 33 -7.5 58t-31.5 48q-18 16 -41 24.5t-42.5 11.5t-34.5 3h-22q-72 0 -144.5 -15.5t-135.5 -39.5q-16 -6 -32.5 -14.5t-33.5 -16.5v194q18 10 35 17.5t51 19.5q70 25 158 38.5 t160 13.5q14 0 45 -1.5t68.5 -8.5t79.5 -22.5t79 -45.5q12 -8 38 -34t42 -67q23 -49 26 -100t3 -104v-601q-47 -12 -95 -18q-37 -6 -120.5 -15.5t-188.5 -9.5q-109 0 -178.5 13.5t-114.5 32.5q-18 8 -45.5 25.5t-53.5 47t-44 72.5t-18 102zM86 1151q18 35 48 74t93 98 q41 37 86 67.5t101 30.5q23 0 53.5 -8t75.5 -37q25 -14 56.5 -32.5t62.5 -18.5q18 0 37.5 9t36 18.5t26.5 18.5t12 9q10 8 17.5 16.5t23.5 26.5h174q-10 -20 -18 -36.5t-13 -20.5q-14 -23 -47.5 -62.5t-87.5 -84.5q-49 -41 -89 -55.5t-68 -14.5q-31 0 -59.5 12.5t-57.5 28.5 q-27 16 -53.5 32.5t-57.5 16.5q-10 0 -20 -2t-29 -8q-25 -10 -62.5 -37t-56.5 -43zM332 297q0 -41 14 -60.5t27 -29.5q25 -20 60.5 -30.5t101.5 -10.5q16 0 52 1t79 11v291h-29t-52.5 -2t-63.5 -7t-64 -18q-78 -29 -101.5 -69.5t-23.5 -75.5z" />
<glyph unicode="&#xe4;" horiz-adv-x="1044" d="M68 270q0 51 14 92t34.5 71t42 49.5t36.5 29.5q94 72 209.5 92.5t226.5 20.5h35v37q-2 33 -7.5 58t-31.5 48q-18 16 -41 24.5t-42.5 11.5t-34.5 3h-22q-72 0 -144.5 -15.5t-135.5 -39.5q-16 -6 -32.5 -14.5t-33.5 -16.5v194q18 10 35 17.5t51 19.5q70 25 158 38.5 t160 13.5q14 0 45 -1.5t68.5 -8.5t79.5 -22.5t79 -45.5q12 -8 38 -34t42 -67q23 -49 26 -100t3 -104v-601q-47 -12 -95 -18q-37 -6 -120.5 -15.5t-188.5 -9.5q-109 0 -178.5 13.5t-114.5 32.5q-18 8 -45.5 25.5t-53.5 47t-44 72.5t-18 102zM176 1288q0 6 1 26.5t9 41.5 q10 23 38 43t83 20q49 0 76 -14t41 -33.5t17 -43.5t3 -44q0 -135 -135 -135q-8 0 -37.5 3t-56.5 24q-27 23 -33 51t-6 61zM332 297q0 -41 14 -60.5t27 -29.5q25 -20 60.5 -30.5t101.5 -10.5q16 0 52 1t79 11v291h-29t-52.5 -2t-63.5 -7t-64 -18q-78 -29 -101.5 -69.5 t-23.5 -75.5zM596 1288q0 18 3 41t17.5 42.5t40 33.5t72.5 14q43 0 67.5 -10t39.5 -25q10 -12 20 -35.5t10 -64.5q0 -47 -14 -74.5t-34.5 -41t-45 -16.5t-43.5 -3q-23 0 -34 2t-21 6q-31 8 -47.5 26.5t-22.5 39t-7 39t-1 26.5z" />
<glyph unicode="&#xe5;" horiz-adv-x="1044" d="M70 270q0 70 26.5 121t61.5 87t70.5 55.5t54.5 29.5q82 37 173 49.5t181 12.5h33v37q-2 37 -9.5 62.5t-35.5 47.5q-20 16 -50 25.5t-83 9.5q-45 0 -140.5 -15.5t-206.5 -70.5l2 194q31 18 68 31q51 18 104.5 29.5t99.5 17.5t81 8.5t49 2.5q115 0 178.5 -26t99.5 -56 q20 -16 35 -33t27 -39q29 -51 34 -111.5t7 -117.5v-601q-45 -12 -94 -18q-37 -6 -121 -15.5t-189 -9.5h-38.5t-76.5 5.5t-94.5 15.5t-91.5 29q-74 35 -114.5 97t-40.5 146zM336 297q0 -55 30.5 -82t68.5 -38t70 -11h34q16 0 51 1t80 11v291h-31t-53.5 -2t-64.5 -8t-66 -19 q-74 -29 -96.5 -68.5t-22.5 -74.5zM336 1313q0 70 22.5 110.5t55 62t67.5 27t60 5.5q29 0 58.5 -5.5t53.5 -19.5q35 -18 53.5 -44t27.5 -52.5t11.5 -49t2.5 -34.5q0 -10 -3.5 -40t-15.5 -61q-16 -33 -58 -68.5t-130 -35.5q-98 0 -152.5 53t-52.5 152zM463 1313q0 -8 3 -21.5 t10 -26t22.5 -20.5t40.5 -8q81 0 77 80q-2 35 -21.5 54.5t-53.5 19.5q-35 0 -56.5 -20.5t-21.5 -57.5z" />
<glyph unicode="&#xe6;" horiz-adv-x="1589" d="M63 260q0 59 24 108.5t61.5 87.5t87 64.5t102.5 38.5q47 10 119.5 17.5t183.5 7.5h27q4 70 -4.5 104.5t-30.5 63.5q-23 25 -57.5 41t-102.5 16q-57 0 -136 -16.5t-196 -71.5v201q20 8 55 23.5t82.5 30.5t105.5 25.5t126 10.5q12 0 42 -1t66.5 -9.5t76.5 -28t73 -53.5 q16 -16 24.5 -31t18.5 -33q14 23 38.5 49.5t60.5 49t85 37t117 14.5q16 0 46 -2.5t67 -10.5t76.5 -26.5t76.5 -48.5q20 -18 46 -48t48.5 -72t39 -98.5t16.5 -126.5q0 -23 -4 -55.5t-15 -81.5h-598q2 -68 31 -116t74 -78.5t102.5 -45t118.5 -14.5q80 0 147.5 16.5t92.5 22.5 l2 -198q-16 -4 -31.5 -9.5t-32.5 -9.5q-49 -12 -110.5 -18t-114.5 -6q-135 0 -217 34.5t-123 75.5q-16 16 -26.5 30.5t-16.5 22.5q-8 -10 -15.5 -21t-15.5 -22q-20 -25 -48 -47t-66.5 -39.5t-91 -29t-121.5 -11.5q-139 0 -217 39t-117 90q-35 47 -43.5 92.5t-8.5 65.5z M322 289q0 -45 38.5 -84t128.5 -39q35 0 59.5 6t35.5 10q33 16 49 42t24.5 52.5t9.5 49t1 30.5q0 23 -1 41.5t-1 38.5q-78 0 -125 -1t-82 -11q-6 0 -27.5 -7t-46.5 -23.5t-44 -42t-19 -62.5zM911 584h363q2 20 -1 35.5t-9 35.5q-12 45 -32 75t-43.5 46.5t-48 22.5t-44.5 6 q-12 0 -35 -3t-49 -20q-27 -16 -62 -65t-39 -133z" />
<glyph unicode="&#xe7;" horiz-adv-x="874" d="M70 496q0 86 16 143t31 86q14 33 47 81t87 92t131 75t181 31q72 0 133.5 -15.5t122.5 -44.5v-223l-6 -2q-57 41 -103 49t-77 8q-47 0 -80 -10t-49 -18q-18 -10 -43 -30t-47.5 -50.5t-38 -73.5t-15.5 -100q0 -41 8.5 -71t12.5 -44q31 -78 100.5 -125t155.5 -45 q33 0 69.5 7t65.5 24q16 8 30.5 18t16.5 12l6 -2v-223l-20 -12t-21 -10q-29 -12 -83 -29t-132 -17q-23 0 -58.5 3.5t-79.5 14.5t-92 33.5t-95 63.5q-61 51 -96 111.5t-52.5 117t-21.5 102.5t-4 73zM434 -424q4 0 11.5 2t15.5 6q12 8 33.5 29.5t21.5 60.5q0 23 -15.5 50.5 t-64.5 44.5v151q49 -8 80 -24.5t49 -30.5q66 -49 85.5 -103.5t19.5 -87.5q-2 -82 -54.5 -146.5t-123.5 -90.5q-23 -10 -34.5 -11t-23.5 -4v154z" />
<glyph unicode="&#xe8;" horiz-adv-x="1024" d="M63 502q0 25 5.5 80t27.5 118q12 35 41 86.5t80 99.5t127 83t184 35q53 0 104.5 -10.5t98.5 -32.5q33 -16 73 -47t74.5 -79.5t59.5 -116t25 -159.5q0 -55 -8.5 -93t-12.5 -58l-598 -2q4 -20 12.5 -53.5t40.5 -73.5q53 -63 123 -82t148 -19q92 0 149 14.5t96 26.5v-196 q-47 -14 -117.5 -30t-179.5 -16q-29 0 -92 4.5t-141 30.5q-78 29 -138.5 78t-100.5 113.5t-60.5 140.5t-20.5 158zM100 1493h289l344 -369h-201zM342 555h369q2 35 1 51.5t-5 32.5q-2 12 -10.5 40t-29 55.5t-53 49t-84.5 21.5q-14 0 -31.5 -2t-37 -11.5t-39 -25.5t-37.5 -45 q-33 -51 -38 -98.5t-5 -67.5z" />
<glyph unicode="&#xe9;" horiz-adv-x="1024" d="M63 502q0 25 5.5 80t27.5 118q12 35 41 86.5t80 99.5t127 83t184 35q53 0 104.5 -10.5t98.5 -32.5q33 -16 73 -47t74.5 -79.5t59.5 -116t25 -159.5q0 -55 -8.5 -93t-12.5 -58l-598 -2q4 -20 12.5 -53.5t40.5 -73.5q53 -63 123 -82t148 -19q92 0 149 14.5t96 26.5v-196 q-47 -14 -117.5 -30t-179.5 -16q-29 0 -92 4.5t-141 30.5q-78 29 -138.5 78t-100.5 113.5t-60.5 140.5t-20.5 158zM322 1124l374 369h277l-461 -369h-190zM342 555h369q2 35 1 51.5t-5 32.5q-2 12 -10.5 40t-29 55.5t-53 49t-84.5 21.5q-14 0 -31.5 -2t-37 -11.5t-39 -25.5 t-37.5 -45q-33 -51 -38 -98.5t-5 -67.5z" />
<glyph unicode="&#xea;" horiz-adv-x="1024" d="M63 502q0 25 5.5 80t27.5 118q12 35 41 86.5t80 99.5t127 83t184 35q53 0 104.5 -10.5t98.5 -32.5q33 -16 73 -47t74.5 -79.5t59.5 -116t25 -159.5q0 -55 -8.5 -93t-12.5 -58l-598 -2q4 -20 12.5 -53.5t40.5 -73.5q53 -63 123 -82t148 -19q92 0 149 14.5t96 26.5v-196 q-47 -14 -117.5 -30t-179.5 -16q-29 0 -92 4.5t-141 30.5q-78 29 -138.5 78t-100.5 113.5t-60.5 140.5t-20.5 158zM133 1124l383 377l379 -379h-201l-178 146l-178 -144h-205zM342 555h369q2 35 1 51.5t-5 32.5q-2 12 -10.5 40t-29 55.5t-53 49t-84.5 21.5q-14 0 -31.5 -2 t-37 -11.5t-39 -25.5t-37.5 -45q-33 -51 -38 -98.5t-5 -67.5z" />
<glyph unicode="&#xeb;" horiz-adv-x="1024" d="M63 502q0 25 5.5 80t27.5 118q12 35 41 86.5t80 99.5t127 83t184 35q53 0 104.5 -10.5t98.5 -32.5q33 -16 73 -47t74.5 -79.5t59.5 -116t25 -159.5q0 -55 -8.5 -93t-12.5 -58l-598 -2q4 -20 12.5 -53.5t40.5 -73.5q53 -63 123 -82t148 -19q92 0 149 14.5t96 26.5v-196 q-47 -14 -117.5 -30t-179.5 -16q-29 0 -92 4.5t-141 30.5q-78 29 -138.5 78t-100.5 113.5t-60.5 140.5t-20.5 158zM164 1288q0 18 3 41t17.5 43.5t40 33.5t72.5 13t74.5 -14t41 -33.5t17.5 -43.5t4 -44q0 -47 -14 -74.5t-34.5 -41t-45.5 -16.5t-43 -3q-43 0 -63.5 9 t-36.5 24q-23 23 -28 49t-5 57zM342 555h369q2 35 1 51.5t-5 32.5q-2 12 -10.5 40t-29 55.5t-53 49t-84.5 21.5q-14 0 -31.5 -2t-37 -11.5t-39 -25.5t-37.5 -45q-33 -51 -38 -98.5t-5 -67.5zM586 1288q0 18 3 41t16 42.5t40 33.5t72 14t68.5 -10t37.5 -25q12 -12 22.5 -35.5 t10.5 -64.5q0 -47 -14.5 -74.5t-35 -41t-45 -16.5t-42.5 -3q-23 0 -34 2t-21 6q-31 8 -47.5 26.5t-22.5 39t-7 39t-1 26.5z" />
<glyph unicode="&#xec;" horiz-adv-x="512" d="M-156 1493h289l344 -369h-201zM119 0v981h274v-981h-274z" />
<glyph unicode="&#xed;" horiz-adv-x="512" d="M66 1124l374 369h277l-461 -369h-190zM119 0v981h274v-981h-274z" />
<glyph unicode="&#xee;" horiz-adv-x="512" d="M-123 1124l383 377l379 -379h-201l-178 146l-178 -144h-205zM119 0v981h274v-981h-274z" />
<glyph unicode="&#xef;" horiz-adv-x="512" d="M-92 1288q0 18 3 41t17.5 43.5t40 33.5t72.5 13t74.5 -14t41 -33.5t17.5 -43.5t4 -44q0 -47 -14 -74.5t-34.5 -41t-45.5 -16.5t-43 -3q-41 0 -62.5 9t-37.5 24q-23 23 -28 49t-5 57zM119 0v981h274v-981h-274zM330 1288q0 18 3 41t16 42.5t40 33.5t72 14t68.5 -10 t37.5 -25q12 -12 22.5 -35.5t10.5 -64.5q0 -47 -14.5 -74.5t-35 -41t-45 -16.5t-42.5 -3q-23 0 -34 2t-21 6q-31 8 -47.5 26.5t-22.5 39t-7 39t-1 26.5z" />
<glyph unicode="&#xf1;" horiz-adv-x="1130" d="M119 0v981h262v-201q2 4 19.5 36t37.5 58q33 45 69 71t69.5 38t64.5 15t53 3q23 0 76 -7t109 -44q49 -33 76.5 -77t40 -95t14.5 -104t2 -105v-569h-275v516q2 37 0 75t-14 73q-4 12 -13.5 27.5t-24.5 30.5t-38.5 25.5t-56.5 10.5q-14 0 -46 -6.5t-65 -30.5 q-31 -25 -48 -57.5t-26.5 -69.5t-11.5 -75t-2 -73v-446h-272zM129 1151q18 35 48 74t93 98q41 37 85 67.5t102 30.5q23 0 53.5 -8t75.5 -37q25 -14 55.5 -32.5t60.5 -18.5q18 0 39 9t37.5 18.5t26.5 18.5t12 9q10 8 17.5 16.5t23.5 26.5h174q-10 -20 -18 -36.5t-13 -20.5 q-14 -23 -48.5 -62.5t-88.5 -84.5q-49 -41 -88 -55.5t-67 -14.5q-31 0 -59.5 12.5t-57.5 28.5q-27 16 -53.5 32.5t-57.5 16.5q-20 0 -49 -10q-25 -10 -62.5 -37t-56.5 -43z" />
<glyph unicode="&#xf2;" horiz-adv-x="1097" d="M63 492q0 20 2.5 56t12.5 81t30.5 96t57.5 100q47 63 104.5 100.5t110.5 55.5t99 22.5t73 4.5q72 0 127 -14.5t97 -35t72 -45t50 -45.5q70 -76 101.5 -173t31.5 -199q0 -25 -4 -74t-24 -115q-12 -41 -41 -97t-82.5 -109.5t-135 -90.5t-198.5 -37q-86 0 -142.5 17.5 t-85.5 34.5q-37 18 -81.5 54t-83.5 92t-65 136t-26 185zM137 1493h289l346 -369h-203zM338 498q0 -12 2 -46t12 -69q4 -12 15.5 -42t35 -59.5t60.5 -52t92 -22.5q59 0 98 28.5t62.5 71.5t33 95.5t9.5 99.5q0 16 -3 54t-20 81q-4 12 -16 36.5t-33.5 48t-55.5 41t-79 17.5 q-41 0 -66.5 -11t-38.5 -19q-39 -27 -73.5 -86.5t-34.5 -165.5z" />
<glyph unicode="&#xf3;" horiz-adv-x="1097" d="M63 492q0 20 2.5 56t12.5 81t30.5 96t57.5 100q47 63 104.5 100.5t110.5 55.5t99 22.5t73 4.5q72 0 127 -14.5t97 -35t72 -45t50 -45.5q70 -76 101.5 -173t31.5 -199q0 -25 -4 -74t-24 -115q-12 -41 -41 -97t-82.5 -109.5t-135 -90.5t-198.5 -37q-86 0 -142.5 17.5 t-85.5 34.5q-37 18 -81.5 54t-83.5 92t-65 136t-26 185zM338 498q0 -12 2 -46t12 -69q4 -12 15.5 -42t35 -59.5t60.5 -52t92 -22.5q59 0 98 28.5t62.5 71.5t33 95.5t9.5 99.5q0 16 -3 54t-20 81q-4 12 -16 36.5t-33.5 48t-55.5 41t-79 17.5q-41 0 -66.5 -11t-38.5 -19 q-39 -27 -73.5 -86.5t-34.5 -165.5zM360 1124l373 369h277l-461 -369h-189z" />
<glyph unicode="&#xf4;" horiz-adv-x="1097" d="M63 492q0 20 2.5 56t12.5 81t30.5 96t57.5 100q47 63 104.5 100.5t110.5 55.5t99 22.5t73 4.5q72 0 127 -14.5t97 -35t72 -45t50 -45.5q70 -76 101.5 -173t31.5 -199q0 -25 -4 -74t-24 -115q-12 -41 -41 -97t-82.5 -109.5t-135 -90.5t-198.5 -37q-86 0 -142.5 17.5 t-85.5 34.5q-37 18 -81.5 54t-83.5 92t-65 136t-26 185zM170 1124l383 377l379 -379h-201l-178 146l-178 -144h-205zM338 498q0 -12 2 -46t12 -69q4 -12 15.5 -42t35 -59.5t60.5 -52t92 -22.5q59 0 98 28.5t62.5 71.5t33 95.5t9.5 99.5q0 16 -3 54t-20 81q-4 12 -16 36.5 t-33.5 48t-55.5 41t-79 17.5q-41 0 -66.5 -11t-38.5 -19q-39 -27 -73.5 -86.5t-34.5 -165.5z" />
<glyph unicode="&#xf5;" horiz-adv-x="1097" d="M63 492q0 20 2.5 56t12.5 81t30.5 96t57.5 100q47 63 104.5 100.5t110.5 55.5t99 22.5t73 4.5q72 0 127 -14.5t97 -35t72 -45t50 -45.5q70 -76 101.5 -173t31.5 -199q0 -25 -4 -74t-24 -115q-12 -41 -41 -97t-82.5 -109.5t-135 -90.5t-198.5 -37q-86 0 -142.5 17.5 t-85.5 34.5q-37 18 -81.5 54t-83.5 92t-65 136t-26 185zM113 1151q18 35 47.5 74t93.5 98q41 37 86 67.5t100 30.5q23 0 53.5 -8t75.5 -37q25 -14 56.5 -32.5t62.5 -18.5q18 0 37.5 9t36 18.5t27 18.5t12.5 9q10 8 17 16.5t24 26.5h174q-10 -20 -18.5 -36.5t-12.5 -20.5 q-14 -23 -48 -62.5t-87 -84.5q-49 -41 -89 -55.5t-69 -14.5q-31 0 -58.5 12.5t-55.5 28.5q-29 16 -55.5 32.5t-57.5 16.5q-18 0 -47 -10q-27 -10 -65 -37t-56 -43zM338 498q0 -12 2 -46t12 -69q4 -12 15.5 -42t35 -59.5t60.5 -52t92 -22.5q59 0 98 28.5t62.5 71.5t33 95.5 t9.5 99.5q0 16 -3 54t-20 81q-4 12 -16 36.5t-33.5 48t-55.5 41t-79 17.5q-41 0 -66.5 -11t-38.5 -19q-39 -27 -73.5 -86.5t-34.5 -165.5z" />
<glyph unicode="&#xf6;" horiz-adv-x="1097" d="M63 492q0 20 2.5 56t12.5 81t30.5 96t57.5 100q47 63 104.5 100.5t110.5 55.5t99 22.5t73 4.5q72 0 127 -14.5t97 -35t72 -45t50 -45.5q70 -76 101.5 -173t31.5 -199q0 -25 -4 -74t-24 -115q-12 -41 -41 -97t-82.5 -109.5t-135 -90.5t-198.5 -37q-86 0 -142.5 17.5 t-85.5 34.5q-37 18 -81.5 54t-83.5 92t-65 136t-26 185zM201 1265.5v22.5q0 18 3 41t16 43.5t39 33.5t73 13q6 0 29.5 -2t46.5 -12q27 -10 44 -38t19 -83q0 -6 -1 -21.5t-6 -34t-17.5 -35.5t-34.5 -30q-14 -6 -30.5 -10t-47.5 -4q-20 0 -39 2t-35 10q-25 12 -37 30.5t-17 38 t-5 36zM338 498q0 -12 2 -46t12 -69q4 -12 15.5 -42t35 -59.5t60.5 -52t92 -22.5q59 0 98 28.5t62.5 71.5t33 95.5t9.5 99.5q0 16 -3 54t-20 81q-4 12 -16 36.5t-33.5 48t-55.5 41t-79 17.5q-41 0 -66.5 -11t-38.5 -19q-39 -27 -73.5 -86.5t-34.5 -165.5zM621 1263.5v22.5 q0 18 4 41t16 43.5t39 34.5t74 14q70 -2 103.5 -32.5t33.5 -102.5q0 -47 -14.5 -74.5t-35 -41t-44 -16.5t-41.5 -3q-29 0 -47.5 5t-28.5 9q-25 12 -37 29.5t-17 36t-5 35z" />
<glyph unicode="&#xf7;" d="M0 489v211h1366v-211h-1366zM543 262q2 59 43 100t98 41q59 -2 100 -43t39 -100q0 -35 -14 -61q-4 -10 -13.5 -22.5t-24.5 -25t-36.5 -19.5t-50.5 -7q-59 0 -100 39t-41 98zM543 926q2 59 42 99t99 40t100 -41t39 -100q0 -59 -40 -98.5t-99 -39.5t-99 40t-42 100z" />
<glyph unicode="&#xf8;" horiz-adv-x="1097" d="M63 469q0 63 9.5 110.5t17.5 69.5q35 111 113 197t190 121q23 8 59.5 14t96.5 6q35 0 99.5 -7t142.5 -48l83 127l134 -6l-127 -189q10 -10 19 -20t20 -23q39 -49 61.5 -100t33.5 -97t14 -83t3 -58q0 -23 -4 -65.5t-18.5 -96t-43 -110.5t-77.5 -111q-68 -74 -153 -106.5 t-187 -32.5q-35 0 -98.5 9.5t-139.5 47.5l-67 -98l-133 4l106 160q-12 12 -21.5 20.5t-27.5 34.5q-33 41 -69 121t-36 209zM338 479q0 -63 12 -104t23 -64l282 422q-14 10 -37.5 21.5t-62.5 11.5q-16 0 -43 -5t-57 -26q-37 -23 -77 -86t-40 -170zM449 219q10 -6 35.5 -18.5 t64.5 -12.5q12 0 39.5 4.5t58.5 24.5q37 27 74 91.5t37 172.5q0 23 -4 64t-27 94z" />
<glyph unicode="&#xf9;" horiz-adv-x="1120" d="M119 467v514h272v-520q0 -39 4 -86t23 -82q12 -23 47 -50.5t100 -25.5q12 0 45 4t64 29q37 33 48 84t9 143v504h275v-504q0 -43 -2.5 -88t-9.5 -89t-21.5 -85t-38.5 -76q-18 -27 -50 -55.5t-77 -52t-105.5 -39t-140.5 -15.5q-12 0 -37.5 1.5t-57.5 6.5t-70 15t-74 29 q-51 25 -96.5 66.5t-67.5 92.5q-12 25 -19.5 51.5t-11.5 58.5t-6 73t-2 96zM147 1493h289l346 -369h-202z" />
<glyph unicode="&#xfa;" horiz-adv-x="1120" d="M119 467v514h272v-520q0 -39 4 -86t23 -82q12 -23 47 -50.5t100 -25.5q12 0 45 4t64 29q37 33 48 84t9 143v504h275v-504q0 -43 -2.5 -88t-9.5 -89t-21.5 -85t-38.5 -76q-18 -27 -50 -55.5t-77 -52t-105.5 -39t-140.5 -15.5q-12 0 -37.5 1.5t-57.5 6.5t-70 15t-74 29 q-51 25 -96.5 66.5t-67.5 92.5q-12 25 -19.5 51.5t-11.5 58.5t-6 73t-2 96zM371 1124l374 369h275l-461 -369h-188z" />
<glyph unicode="&#xfb;" horiz-adv-x="1120" d="M119 467v514h272v-520q0 -39 4 -86t23 -82q12 -23 47 -50.5t100 -25.5q12 0 45 4t64 29q37 33 48 84t9 143v504h275v-504q0 -43 -2.5 -88t-9.5 -89t-21.5 -85t-38.5 -76q-18 -27 -50 -55.5t-77 -52t-105.5 -39t-140.5 -15.5q-12 0 -37.5 1.5t-57.5 6.5t-70 15t-74 29 q-51 25 -96.5 66.5t-67.5 92.5q-12 25 -19.5 51.5t-11.5 58.5t-6 73t-2 96zM180 1124l383 377l379 -379h-201l-178 146l-178 -144h-205z" />
<glyph unicode="&#xfc;" horiz-adv-x="1120" d="M119 467v514h272v-520q0 -39 4 -86t23 -82q12 -23 47 -50.5t100 -25.5q12 0 45 4t64 29q37 33 48 84t9 143v504h275v-504q0 -43 -2.5 -88t-9.5 -89t-21.5 -85t-38.5 -76q-18 -27 -50 -55.5t-77 -52t-105.5 -39t-140.5 -15.5q-12 0 -37.5 1.5t-57.5 6.5t-70 15t-74 29 q-51 25 -96.5 66.5t-67.5 92.5q-12 25 -19.5 51.5t-11.5 58.5t-6 73t-2 96zM213 1286q0 6 1 26.5t11 41.5q10 25 27.5 38t36 19t35 7t22.5 1q72 -2 104.5 -32.5t32.5 -102.5q0 -6 -1 -21.5t-6 -34t-16 -35.5t-34 -30q-14 -6 -31.5 -10t-46.5 -4q-4 0 -23.5 1t-37.5 7 q-29 8 -44.5 26.5t-21.5 39t-7 38t-1 25.5zM635 1286q0 18 3 41t16.5 43.5t39 34.5t72.5 14q72 -2 105.5 -32.5t33.5 -102.5q0 -47 -14 -74.5t-35.5 -41t-44.5 -16.5t-41 -3q-6 0 -24.5 1t-36.5 7q-29 8 -44.5 26.5t-21.5 39t-7 38t-1 25.5z" />
<glyph unicode="&#xff;" horiz-adv-x="1097" d="M33 981h305l209 -733l211 733h307l-139 -395q-53 -143 -109.5 -282.5t-116.5 -280.5q-43 -100 -89 -198.5t-89 -201.5h-293l170 393q-16 35 -31.5 70t-29.5 70q-47 104 -87 210.5t-79 213.5zM203 1288q0 18 3 41t16.5 43.5t39 33.5t72.5 13t74.5 -14t41 -33.5t17.5 -43.5 t4 -44q0 -47 -13.5 -74.5t-35 -41t-46 -16.5t-42.5 -3q-41 0 -62.5 9t-35.5 24q-23 23 -28 49t-5 57zM623 1288q0 18 3 41t17 42.5t40 33.5t73 14q43 0 67.5 -10t38.5 -25q12 -12 21.5 -35.5t9.5 -64.5q0 -47 -13.5 -74.5t-35 -41t-45 -16.5t-41.5 -3q-25 0 -36 2t-22 6 q-31 8 -47 26.5t-22 39t-7 39t-1 26.5z" />
<glyph unicode="&#x152;" horiz-adv-x="1705" d="M74 733q0 29 4 89.5t21.5 136t54 157.5t104.5 156q20 23 60 57.5t106 65.5q86 35 165 42t171 9h876v-256l-553 -2q10 -10 21.5 -22.5t21.5 -24.5q33 -43 51.5 -89t27.5 -88t11.5 -74t2.5 -46h380v-232l-378 -2q-4 -55 -12.5 -100t-24 -86t-39 -80t-58.5 -84h547v-260 h-882q-27 0 -53.5 1t-53.5 3q-125 8 -219 48t-176 138q-29 33 -59.5 82.5t-56 117t-43 152.5t-17.5 191zM373 727q0 -14 1 -44t6 -67.5t14 -82t28 -87.5q16 -39 38.5 -73.5t53.5 -61t67.5 -43t82.5 -16.5q16 0 48.5 6t69.5 33q63 47 110.5 159.5t47.5 292.5q0 20 -4 75.5 t-21 119.5q-2 8 -16 49t-44 87t-76.5 83t-116.5 37q-18 2 -51 -4t-70 -31q-66 -43 -117 -149.5t-51 -282.5z" />
<glyph unicode="&#x153;" horiz-adv-x="1662" d="M63 492q0 27 5.5 84t31.5 122q53 141 170 224.5t269 83.5q104 0 170.5 -34t97.5 -63q10 -8 22.5 -20t28.5 -33q16 20 42 46t62.5 49.5t87 39t117.5 15.5q78 0 152 -26t133 -79q20 -18 46 -48t47.5 -71t36.5 -96t15 -125q0 -29 -4 -64.5t-20 -90.5l-584 -3 q2 -35 14.5 -61.5t34.5 -54.5q35 -39 94.5 -72t174.5 -33q41 0 98 8.5t143 36.5v-200q-37 -16 -73 -25q-25 -6 -84.5 -17.5t-135.5 -11.5q-72 0 -127 12.5t-96 32t-71.5 43t-51.5 45.5q-10 10 -18 21.5t-19 22.5q-12 -23 -20 -33.5t-14 -20.5q-16 -20 -41 -41.5t-61 -39 t-84 -29t-109 -11.5q-20 0 -52 2.5t-71 11.5t-82 27.5t-86 53.5q-27 20 -59.5 56t-61.5 88t-48.5 120.5t-19.5 157.5zM338 470q0 -30 7 -67.5t24.5 -77.5t52.5 -71q35 -35 71.5 -42t53.5 -7q37 0 62.5 11t35.5 17q41 29 73 91.5t32 173.5q0 12 -1 39.5t-9.5 63.5t-27 73 t-53.5 65q-35 29 -67.5 36t-48.5 7q-72 0 -134.5 -64.5t-70.5 -207.5v-40zM981 553h365q0 8 1 32.5t-4 53.5q-12 66 -57 116t-119 50q-14 0 -38.5 -4t-53.5 -25q-31 -23 -62.5 -77t-31.5 -146z" />
<glyph unicode="&#x178;" horiz-adv-x="1206" d="M39 1446h323l242 -715l246 715h321l-147 -356q-35 -84 -69.5 -166t-73.5 -164q-31 -68 -64 -133.5t-69 -134.5v-492h-289v489q-29 53 -54.5 105.5t-50.5 105.5q-45 96 -86 190.5t-82 192.5zM246 1702q0 18 4 42.5t17.5 45t41 35t76.5 14.5q18 0 43 -3t46.5 -17.5 t35.5 -42t14 -76.5q0 -139 -139 -139q-49 0 -76.5 14t-42 35.5t-17.5 46t-3 45.5zM686 1704q0 8 1 26.5t9 41.5q10 27 29.5 40t39 19t37 7t23.5 1q72 0 105 -33.5t35 -105.5q0 -49 -14.5 -77t-37 -41t-47 -17t-43.5 -4q-6 0 -24.5 1t-38 8t-39 22.5t-27.5 43.5q-6 16 -7 33 t-1 35z" />
<glyph unicode="&#x2c6;" horiz-adv-x="598" d="M-272 1124l383 377l378 -379h-200l-178 146l-179 -144h-204z" />
<glyph unicode="&#x2dc;" horiz-adv-x="598" d="M-330 1151q18 35 48 74t94 98q41 37 85 67.5t101 30.5q23 0 53.5 -8t75.5 -37q25 -14 55.5 -32.5t61.5 -18.5q18 0 38.5 9t37 18.5t26.5 18.5t12 9q10 8 17.5 16.5t23.5 26.5h174q-10 -20 -18 -36.5t-12 -20.5q-14 -23 -49 -62.5t-88 -84.5q-49 -41 -88 -55.5t-68 -14.5 q-31 0 -59.5 12.5t-57.5 28.5q-27 16 -53.5 32.5t-56.5 16.5q-20 0 -50 -10q-25 -10 -62.5 -37t-55.5 -43z" />
<glyph unicode="&#x2000;" horiz-adv-x="973" />
<glyph unicode="&#x2001;" horiz-adv-x="1946" />
<glyph unicode="&#x2002;" horiz-adv-x="973" />
<glyph unicode="&#x2003;" horiz-adv-x="1946" />
<glyph unicode="&#x2004;" horiz-adv-x="648" />
<glyph unicode="&#x2005;" horiz-adv-x="486" />
<glyph unicode="&#x2006;" horiz-adv-x="324" />
<glyph unicode="&#x2007;" horiz-adv-x="324" />
<glyph unicode="&#x2008;" horiz-adv-x="243" />
<glyph unicode="&#x2009;" horiz-adv-x="389" />
<glyph unicode="&#x200a;" horiz-adv-x="108" />
<glyph unicode="&#x2010;" horiz-adv-x="788" d="M78 426v197h637v-197h-637z" />
<glyph unicode="&#x2011;" horiz-adv-x="788" d="M78 426v197h637v-197h-637z" />
<glyph unicode="&#x2012;" horiz-adv-x="788" d="M78 426v197h637v-197h-637z" />
<glyph unicode="&#x2013;" horiz-adv-x="1077" d="M74 426v197h934v-197h-934z" />
<glyph unicode="&#x2014;" d="M0 496v211h1366v-211h-1366z" />
<glyph unicode="&#x2018;" horiz-adv-x="512" d="M68 903l200 543h176l-118 -543h-258z" />
<glyph unicode="&#x2019;" horiz-adv-x="512" d="M68 903l120 543h256l-200 -543h-176z" />
<glyph unicode="&#x201a;" horiz-adv-x="512" d="M86 166q0 8 2 30.5t8 45.5q12 35 35 53t46.5 25.5t45 8.5t31.5 1q23 0 51.5 -4t54 -19.5t43 -49.5t17.5 -91q0 -66 -27.5 -158t-118.5 -211h-174q55 72 81 120t38 89q-41 -2 -76 21q-35 25 -46 61.5t-11 77.5z" />
<glyph unicode="&#x201c;" horiz-adv-x="894" d="M86 903l201 543h174l-119 -543h-256zM449 903l200 543h176l-118 -543h-258z" />
<glyph unicode="&#x201d;" horiz-adv-x="894" d="M86 903l117 543h258l-201 -543h-174zM449 903l118 543h258l-200 -543h-176z" />
<glyph unicode="&#x201e;" horiz-adv-x="894" d="M86 -242l117 545h258l-201 -545h-174zM449 -242l118 545h258l-200 -545h-176z" />
<glyph unicode="&#x2022;" horiz-adv-x="681" d="M49 723q0 16 5 48t22 71q8 18 28.5 48t53 57.5t80 47t108.5 19.5q16 0 49 -4t74 -23q20 -10 48 -28.5t53.5 -51.5t44 -79t18.5 -107t-21.5 -114.5t-59.5 -92.5t-90 -61.5t-114 -22.5q-61 0 -116.5 22.5t-95.5 61.5t-63.5 92t-23.5 117z" />
<glyph unicode="&#x2026;" horiz-adv-x="2048" d="M203 127q0 59 41 99t100 40q57 0 96 -39t41 -98q0 -8 -2 -21.5t-8 -29.5q-16 -41 -50 -65.5t-79 -24.5q-59 0 -99 40t-40 99zM885 127q0 59 41 99t100 40t97 -39t40 -98q0 -59 -39 -100t-98 -41q-57 0 -99 40t-42 99zM1569 127q0 59 40 99t99 40q8 0 24.5 -1t34.5 -11 q37 -16 57.5 -50t20.5 -75q0 -59 -39 -100t-98 -41t-99 40t-40 99z" />
<glyph unicode="&#x202f;" horiz-adv-x="389" />
<glyph unicode="&#x205f;" horiz-adv-x="486" />
<glyph unicode="&#x2122;" horiz-adv-x="1406" d="M16 1327v119h570v-119h-209v-561h-146v561h-215zM643 766v680h188l164 -514l156 514h190v-680h-141l4 393l1 15q1 16 2 37.5t3 44t4 40.5q-8 -29 -15 -56.5t-15 -55.5l-127 -418h-129l-131 420q-8 27 -15.5 53.5t-15.5 54.5q4 -35 6 -68.5t4 -68.5l8 -391h-141z" />
<glyph unicode="&#xe000;" horiz-adv-x="980" d="M0 0v980h980v-980h-980z" />
</font>
</defs>
</svg>
