<?xml version="1.0" encoding="utf-8"?>
<!-- Generator: Adobe Illustrator 16.0.0, SVG Export Plug-In . SVG Version: 6.00 Build 0)  -->
<!DOCTYPE svg PUBLIC "-//W3C//DTD SVG 1.1//EN" "http://www.w3.org/Graphics/SVG/1.1/DTD/svg11.dtd">
<svg version="1.1" id="Layer_1" xmlns="http://www.w3.org/2000/svg" xmlns:xlink="http://www.w3.org/1999/xlink" x="0px" y="0px"
	 width="100px" height="56.816px" viewBox="0 0 100 56.816" enable-background="new 0 0 100 56.816" xml:space="preserve">
<path fill="#FFFFFF" d="M99.861,54.004c1.104-2.809-4.693-7.46-7.682-8.455c-10.871-3.622-21.74-7.243-32.611-10.865L38.391,0
	l-5.732,1.011l1.302,25.205c-10.49-3.36-29.735-9.469-33.195-10.621c-2.979-0.993,12.925,14.858,17.513,17.235
	c0,0,39.002,13.246,56.314,19.014c4.45,1.482,8.9,2.966,13.351,4.448C90.923,57.284,98.663,57.052,99.861,54.004z"/>
<polygon fill="#FFFFFF" points="4.096,0.855 0,1.278 0.812,13.578 12.572,17.269 "/>
<circle fill="#FFFFFF" cx="49.924" cy="47.482" r="1.906"/>
<circle fill="#FFFFFF" cx="44.523" cy="45.576" r="1.906"/>
</svg>
