<?xml version="1.0" encoding="utf-8"?>
<!-- Generator: Adobe Illustrator 16.0.0, SVG Export Plug-In . SVG Version: 6.00 Build 0)  -->
<!DOCTYPE svg PUBLIC "-//W3C//DTD SVG 1.1//EN" "http://www.w3.org/Graphics/SVG/1.1/DTD/svg11.dtd">
<svg version="1.1" id="Layer_1" xmlns="http://www.w3.org/2000/svg" xmlns:xlink="http://www.w3.org/1999/xlink" x="0px" y="0px"
	 width="100px" height="100px" viewBox="0 0 100 100" enable-background="new 0 0 100 100" xml:space="preserve">
<g id="Captions">
</g>
<g id="Your_Icon">
	<path fill="#FFFFFF" d="M64.122,2.29v11.09c0,0.674,0.547,1.222,1.222,1.222h11.088c0.676,0,0.834-0.387,0.357-0.863L64.986,1.933
		C64.509,1.455,64.122,1.615,64.122,2.29z"/>
	<path fill="#FFFFFF" d="M71.736,69.242V58.449c0-0.676,0.324-0.779,0.723-0.235l5.542,7.562c0.397,0.543,0.722,0.438,0.722-0.236
		V19.087c0,0,0-0.206,0-0.46c0-0.253-0.205-0.458-0.459-0.458h-0.459H62.898c0,0-0.523,0-1.172,0c-0.647,0-1.172-0.525-1.172-1.173
		v-1.173V0.92c0,0,0-0.207,0-0.459C60.555,0.205,60.348,0,60.096,0h-0.461H14.569c-0.675,0-1.221,0.546-1.221,1.222v28.057v25.243
		v28.057c0,0.675,0.546,1.222,1.221,1.222h28.613c0.675,0,1.221-0.547,1.221-1.222V71.686c0-0.676,0.546-1.222,1.222-1.222h13.98
		h10.91C71.189,70.464,71.736,69.917,71.736,69.242z M35.471,21.43h20.804c0.676,0,1.223,0.547,1.223,1.222v2.609
		c0,0.674-0.547,1.222-1.223,1.222H35.471c-0.675,0-1.222-0.548-1.222-1.222v-2.609C34.25,21.977,34.796,21.43,35.471,21.43z
		 M35.471,33.746h29.362c0.676,0,1.222,0.546,1.222,1.222v2.608c0,0.675-0.546,1.222-1.222,1.222H35.471
		c-0.675,0-1.222-0.547-1.222-1.222v-2.608C34.25,34.292,34.796,33.746,35.471,33.746z M35.471,46.131h24.472
		c0.677,0,1.223,0.547,1.223,1.222v2.604c0,0.674-0.546,1.223-1.223,1.223H35.471c-0.675,0-1.222-0.549-1.222-1.223v-2.604
		C34.25,46.678,34.796,46.131,35.471,46.131z M26.521,63.967c-1.964,0-3.56-1.595-3.56-3.561c0-1.969,1.595-3.557,3.56-3.557
		s3.56,1.588,3.56,3.557C30.082,62.372,28.486,63.967,26.521,63.967z M26.521,52.217c-1.964,0-3.56-1.596-3.56-3.562
		c0-1.968,1.595-3.557,3.56-3.557s3.56,1.589,3.56,3.557C30.082,50.621,28.486,52.217,26.521,52.217z M26.521,39.83
		c-1.964,0-3.56-1.594-3.56-3.56c0-1.964,1.595-3.558,3.56-3.558s3.56,1.594,3.56,3.558C30.082,38.236,28.486,39.83,26.521,39.83z
		 M26.521,27.514c-1.964,0-3.56-1.591-3.56-3.56c0-1.961,1.595-3.557,3.56-3.557s3.56,1.596,3.56,3.557
		C30.082,25.923,28.486,27.514,26.521,27.514z M34.25,61.708v-2.604c0-0.676,0.546-1.222,1.222-1.222h30.584
		c0.676,0,1.221,0.546,1.221,1.222v2.604c0,0.675-0.545,1.222-1.221,1.222H35.471C34.796,62.93,34.25,62.383,34.25,61.708z"/>
	<path fill="#FFFFFF" d="M86.354,82.05l-6.631-9.046l-4.828-6.585c-0.398-0.544-0.723-0.438-0.723,0.235v6.354
		c0,0.676-0.547,1.221-1.222,1.221h-8.416H50.241c-0.675,0-1.222,0.547-1.222,1.223v11.09v4.076c0,0.676,0.546,1.222,1.222,1.222
		h14.293h8.416c0.675,0,1.222,0.548,1.222,1.222v6.354c0,0.676,0.323,0.78,0.723,0.235L86.354,84.02
		C86.751,83.477,86.751,82.594,86.354,82.05z"/>
</g>
</svg>
