<svg xmlns="http://www.w3.org/2000/svg" xmlns:xlink="http://www.w3.org/1999/xlink" version="1.1" id="Layer_1" x="0px" y="0px" width="100px" height="100px" viewBox="0 0 100 100" enable-background="new 0 0 100 100" xml:space="preserve">
<circle cx="71.479" cy="24.806" r="16.379"/>
<path d="M79.726,48.54H68.801c-4.939,0-9.432,1.875-12.843,4.931l-18.305,7.51l-5.149-9.75h12.487c2.819,0,5.106-2.285,5.106-5.105  c0-2.819-2.287-5.106-5.106-5.106H6.106C3.286,41.019,1,43.306,1,46.125c0,2.82,2.286,5.105,5.106,5.105h10.305  c0.106,0.283,0.224,0.564,0.369,0.839l11.262,21.325c1.272,2.409,3.744,3.812,6.324,3.812c0.906,0,1.825-0.173,2.71-0.536  l12.449-5.106v27.104H99V67.815C99,57.17,90.37,48.54,79.726,48.54z"/>
<path d="M18.438,16.955c0,8.493-3.015,15.378-6.735,15.378s-6.736-6.885-6.736-15.378H18.438z"/>
<path d="M48.618,33.969c0,2.425-7.092,4.388-15.841,4.388c-8.75,0-15.841-1.963-15.841-4.388H48.618z"/>
</svg>