<svg xmlns="http://www.w3.org/2000/svg" xmlns:xlink="http://www.w3.org/1999/xlink" version="1.1" id="Layer_1" x="0px" y="0px" width="100px" height="100px" viewBox="0 0 100 100" enable-background="new 0 0 100 100" xml:space="preserve">
<circle cx="59.65039" cy="41.60889" r="5.41943"/>
<path d="M78.34961,49.91016l-2.04199-14.26611C75.84473,32.40527,73.07031,30,69.79883,30  C67.00879,29.78564,64.43848,29.58936,62,29.42188v-5.17529C62,21.62451,59.81152,19.5,57.11328,19.5H42.88477  C40.1875,19.5,38,21.62451,38,24.24658v4.99854C35.56445,29.4248,32.99512,29.6709,30.20117,30  c-3.27148,0-6.0459,2.40527-6.50879,5.64404L21.65039,49.9043c-0.94727,6.61523-1.53027,13.27637-1.74805,19.95508  c-0.05273,1.60742,0.22168,3.19141,0.7832,4.66406v11.76367c0,1.36035,1.24512,2.46289,2.78223,2.46289h4.43555  c1.53711,0,2.78223-1.10254,2.78223-2.46289v-4.09863c0.40039,0.04102,0.80469,0.06152,1.21094,0.06152h36.20215  c0.4082,0,0.81348-0.02148,1.21582-0.06152v4.09863c0,1.36035,1.24512,2.46289,2.78223,2.46289h4.43555  c1.53711,0,2.78223-1.10254,2.78223-2.46289V74.5166c0.56055-1.47266,0.83398-3.05469,0.78223-4.66211v-0.00293  C79.87891,63.17773,79.2959,56.52051,78.34961,49.91016z M29.32715,71.40625c-3.10352,0-5.61816-2.51563-5.61816-5.61914  s2.51465-5.61719,5.61816-5.61719s5.61914,2.51367,5.61914,5.61719S32.43066,71.40625,29.32715,71.40625z M56.88379,47.07471  c-2.96777,0-5.37402,2.40625-5.37402,5.37451v2.3877c-7.24512,0.18164-14.13086-0.36719-22.28125-1.7373  c-2.1582-0.36328-3.63281-2.37598-3.32617-4.54248c0.67871-4.79688,1.75-12.34619,1.75-12.34619  C27.83203,34.9502,28.92773,34,30.20117,34c15.85352-1.82959,23.99023-1.17334,39.59766,0c1.27344,0,2.36914,0.9502,2.54883,2.20996  c0,0,1.05566,7.43896,1.73438,12.23535c0.31055,2.19678-1.21094,4.23242-3.40625,4.55664  c-1.06055,0.15625-2.0957,0.30273-3.11133,0.44043v-0.99316c0-2.96826-2.40625-5.37451-5.37402-5.37451H56.88379z   M70.67188,71.40625c-3.10254,0-5.61914-2.51563-5.61914-5.61914s2.5166-5.61719,5.61914-5.61719  c3.10352,0,5.61816,2.51367,5.61816,5.61719S73.77539,71.40625,70.67188,71.40625z"/>
</svg>