<?xml version="1.0" encoding="utf-8"?>
<!-- Generator: Adobe Illustrator 16.0.0, SVG Export Plug-In . SVG Version: 6.00 Build 0)  -->
<!DOCTYPE svg PUBLIC "-//W3C//DTD SVG 1.1//EN" "http://www.w3.org/Graphics/SVG/1.1/DTD/svg11.dtd">
<svg version="1.1" id="Layer_1" xmlns="http://www.w3.org/2000/svg" xmlns:xlink="http://www.w3.org/1999/xlink" x="0px" y="0px"
	 width="100px" height="60px" viewBox="0 0 100 60" enable-background="new 0 0 100 60" xml:space="preserve">
<g id="Layer_x0020_1">
	<path fill="#8DBA9A" d="M85.014,27.979h13.873c-2.529-3.751-5.279-7.834-6.592-13.578h-0.68
		C90.484,19.702,87.988,24.412,85.014,27.979L85.014,27.979z M67.969,28.273h13.872c-2.528-2.67-5.279-5.578-6.591-9.667h-0.681
		C73.439,22.381,70.943,25.734,67.969,28.273L67.969,28.273z M56.541,15.305h5.652c-1.031-2.742-2.151-5.727-2.686-9.925H59.23
		C58.77,9.255,57.754,12.698,56.541,15.305L56.541,15.305z M37.489,15.305h5.651c-1.03-2.742-2.151-5.727-2.685-9.925h-0.277
		C39.718,9.255,38.701,12.698,37.489,15.305L37.489,15.305z M56.959,21.312c-2.652-5.863-5.445-12.309-6.812-21.205h-0.744
		c-1.175,8.193-3.699,15.519-6.74,21.205h-0.374v-4.428h-3.948v8.818h1.734v8.929h-1.623l0-3.283h-4.87l-0.035,2.195l-1.313-0.008
		l0.02-3.147H18.196l-0.003,1.637l-2.524-0.011l0.018-1.626H0.006L0,35.115l3.113,3.249l-0.09,14.813l-2.288,3.337l18.484,0.058
		l-1.687,3.32h22.1v-7.526c0-5.723,4.682-10.404,10.405-10.404l0,0c5.723,0,10.404,4.682,10.404,10.404v7.526h23.023l-2.728-3.32
		l18.521-0.037l-2.251-3.357l-0.011-14.813l3.003-3.25l-0.008-4.727H84.461l-0.014,1.581l-2.791,0.006v-1.587h-13.34v4.203h-1.957
		v-3.243h-5.66l-0.018,3.283h-1.348l-0.036-8.929h2.085l0.082-8.818h-4.196l-0.019,4.428H56.959L56.959,21.312z M18.396,28.273
		h13.873c-2.529-2.67-5.28-5.578-6.591-9.667h-0.681C23.866,22.381,21.371,25.734,18.396,28.273z M0.911,27.979h13.873
		c-2.529-3.751-5.28-7.834-6.591-13.578h-0.68C6.381,19.702,3.886,24.412,0.911,27.979L0.911,27.979z"/>
</g>
</svg>
