<?xml version="1.0" encoding="utf-8"?>
<!-- Generator: Adobe Illustrator 16.0.0, SVG Export Plug-In . SVG Version: 6.00 Build 0)  -->
<!DOCTYPE svg PUBLIC "-//W3C//DTD SVG 1.1//EN" "http://www.w3.org/Graphics/SVG/1.1/DTD/svg11.dtd">
<svg version="1.1" id="Layer_1" xmlns="http://www.w3.org/2000/svg" xmlns:xlink="http://www.w3.org/1999/xlink" x="0px" y="0px"
	 width="100px" height="100px" viewBox="0 0 100 100" enable-background="new 0 0 100 100" xml:space="preserve">
<g id="Captions">
</g>
<g id="Your_Icon">
	<path fill="#8DBA9A" d="M69.8,53.376h3.125c-3.729-2.419-4.938-11.79-4.938-11.79c0,5.34-5.34,11.79-5.34,11.79h2.217v7.056h-3.627
		V40.778h3.322c-4.029-3.324-5.338-16.725-5.338-16.725c0,8.665-5.24,16.725-5.24,16.725h3.427v7.658h-4.333V26.169h3.523
		c-5.642-3.527-6.045-16.425-6.045-16.425c0,8.766-5.944,16.827-5.944,16.827h3.929V48.84h-4.633v-7.759h3.122
		c-3.729-3.528-5.039-17.432-5.039-17.432c0,10.176-6.046,17.632-6.046,17.632h2.217v20.254h-3.224V57.91h2.418
		c-3.123-3.225-4.534-15.72-4.534-15.72c0,7.154-5.744,15.921-5.744,15.921h2.419v31.137h0.001v1.008H69.8V88.24l0,0V53.376z"/>
</g>
</svg>
