<?xml version="1.0" encoding="utf-8"?>
<!-- Generator: Adobe Illustrator 16.0.0, SVG Export Plug-In . SVG Version: 6.00 Build 0)  -->
<!DOCTYPE svg PUBLIC "-//W3C//DTD SVG 1.1//EN" "http://www.w3.org/Graphics/SVG/1.1/DTD/svg11.dtd">
<svg version="1.1" id="Calque_1" xmlns="http://www.w3.org/2000/svg" xmlns:xlink="http://www.w3.org/1999/xlink" x="0px" y="0px"
	 width="100px" height="100px" viewBox="0 0 100 100" enable-background="new 0 0 100 100" xml:space="preserve">
<g>
	<path fill="#414848" d="M62.626,81.757c-0.431-0.675-0.308-1.409-0.308-1.409v-1.043l0.185-0.918h-0.367v-1.902h-2.022h-5.396
		c-0.063,0-8.17,0-8.231,0H41.09h-2.023v1.902H38.7l0.184,0.918v1.043c0,0,0.123,0.734-0.306,1.409
		c-0.43,0.675-8.277,15.021-8.277,15.021h7.603c0,0,0.683-12.016,12.698-12.016c12.018,0,12.699,12.016,12.699,12.016h7.602
		C70.9,96.777,63.057,82.432,62.626,81.757z"/>
	<path fill="#414848" d="M45.075,62.016c0,0-1.588,8.808-3.625,13.658h5.274c0.791-3.027,1.846-10.348,1.846-10.348h4.062
		c0,0,1.056,7.32,1.847,10.348h5.273c-2.037-4.852-3.625-13.658-3.625-13.658h0.43l0.699-2.313l-1.313-0.015V58.95h-0.857
		c0,0-2.882-20.416-2.882-42.978c0,0,0.614,0,0.614-0.797c0-0.797,0-1.655,0-1.655l-0.246-0.245v-1.41c0,0,0-0.491-0.491-0.858
		c-0.489-0.368-1.164-0.552-1.164-1.349l-0.095-0.306l-0.221-6.01l-0.22,6.01l-0.096,0.306c0,0.797-0.675,0.98-1.164,1.349
		c-0.491,0.367-0.491,0.858-0.491,0.858v1.41l-0.245,0.245c0,0,0,0.858,0,1.655c0,0.797,0.613,0.797,0.613,0.797
		c0,22.562-2.882,42.978-2.882,42.978H45.26v0.735l-1.314,0.016l0.701,2.313h0.428V62.016z"/>
</g>
</svg>
