<svg xmlns="http://www.w3.org/2000/svg" xmlns:xlink="http://www.w3.org/1999/xlink" version="1.1" id="Layer_1" x="0px" y="0px" width="100.0px" height="100px" viewBox="0 0 141.73 141.73" enable-background="new 0 0 141.73 141.73" xml:space="preserve">
<path d="M97.851,58.657V48.003c0-0.783-0.635-1.417-1.418-1.417h-8.504c-0.782,0-1.417,0.635-1.417,1.417v4.108L97.851,58.657z"/>
<path d="M69.502,60.657L41.156,77.022v21.665v7.56v0.944c0,1.566,1.269,2.835,2.834,2.835h0.946h4.724h12.757V83.098  c0-0.783,0.635-1.418,1.417-1.418h11.34c0.783,0,1.417,0.635,1.417,1.418v26.929h12.756h4.724h0.946  c1.565,0,2.834-1.269,2.834-2.835v-0.944v-7.56V77.024L69.502,60.657z"/>
<path d="M109.56,67.083L70.281,44.407c-0.233-0.135-0.488-0.19-0.739-0.185c-0.013-0.001-0.026,0-0.04-0.001  c-0.013,0.001-0.026,0-0.04,0.001c-0.251-0.005-0.506,0.05-0.739,0.185L29.446,67.084c-0.678,0.392-0.91,1.259-0.519,1.937  l4.252,7.364c0.391,0.678,1.258,0.91,1.936,0.519L69.503,57.05l34.388,19.854c0.678,0.391,1.545,0.158,1.936-0.52l4.252-7.364  C110.47,68.343,110.237,67.476,109.56,67.083z"/>
</svg>